<svg width="224" height="224" viewBox="0 0 224 224" fill="none" xmlns="http://www.w3.org/2000/svg">
<g clip-path="url(#clip0)">
<path d="M41.7115 129.555L105.106 21.5596C107.144 18.0879 109.791 15.3235 112.8 13.2657C101.029 5.21587 83.7231 7.97628 75.7494 21.5596L12.3549 129.555C2.24289 146.781 14.7059 168.445 34.7278 168.445H64.0844C44.0629 168.445 31.5995 146.781 41.7115 129.555Z" fill="#A4CAFE"/>
<path d="M112.964 26.0125C109.856 20.6995 104.313 17.5248 98.1358 17.52C98.131 17.52 98.1267 17.52 98.1218 17.52C91.9505 17.52 86.4087 20.6851 83.2948 25.9898L19.9003 133.985C16.7707 139.317 16.7357 145.702 19.8071 151.066C22.9013 156.471 28.4795 159.697 34.7282 159.697H86.6357C91.468 159.697 95.385 163.614 95.385 168.446C95.385 173.278 91.468 177.195 86.6357 177.195H34.7282C22.1266 177.195 10.8719 170.678 4.6214 159.761C-1.60637 148.884 -1.53594 135.936 4.80951 125.127L68.204 17.1311C74.4934 6.41668 85.6768 0.0213623 98.1214 0.0213623H98.1494C110.606 0.0309866 121.79 6.44467 128.068 17.1779L167.636 84.8237C170.076 88.9945 168.672 94.3534 164.501 96.7932C160.33 99.2334 154.971 97.83 152.531 93.6583L112.964 26.0125ZM224 168.422C224 173.254 220.083 177.171 215.251 177.171H209.071C208 182.154 206.033 186.807 203.347 190.954L207.876 195.482C211.293 198.899 211.293 204.439 207.876 207.856C206.168 209.564 203.929 210.418 201.689 210.418C199.45 210.418 197.211 209.564 195.503 207.856L190.974 203.327C186.827 206.013 182.173 207.979 177.191 209.051V215.23C177.191 220.063 173.274 223.98 168.442 223.98C163.61 223.98 159.693 220.063 159.693 215.23V209.051C154.71 207.979 150.057 206.013 145.91 203.327L141.381 207.856C139.673 209.564 137.433 210.418 135.194 210.418C132.955 210.418 130.716 209.564 129.008 207.856C125.591 204.439 125.591 198.899 129.008 195.482L133.536 190.954C130.85 186.807 128.884 182.154 127.812 177.171H121.633C116.801 177.171 112.884 173.254 112.884 168.422C112.884 163.59 116.801 159.673 121.633 159.673H127.812C128.884 154.69 130.85 150.037 133.536 145.89L129.008 141.362C125.591 137.945 125.591 132.405 129.008 128.988C132.424 125.571 137.964 125.571 141.381 128.988L145.91 133.517C150.057 130.831 154.71 128.865 159.693 127.793V121.614C159.693 116.781 163.61 112.864 168.442 112.864C173.274 112.864 177.191 116.781 177.191 121.614V127.793C182.173 128.865 186.827 130.831 190.974 133.517L195.503 128.988C198.92 125.571 204.46 125.571 207.876 128.988C211.293 132.406 211.293 137.945 207.876 141.362L203.347 145.89C206.033 150.037 208 154.69 209.071 159.673H215.251C220.083 159.673 224 163.59 224 168.422ZM192.502 168.422C192.502 155.155 181.709 144.361 168.442 144.361C155.175 144.361 144.381 155.155 144.381 168.422C144.381 181.689 155.175 192.483 168.442 192.483C181.709 192.483 192.502 181.689 192.502 168.422Z" fill="#1C63F2"/>
<path d="M98.4474 122.908C104.487 122.908 109.384 127.804 109.384 133.844C109.384 139.885 104.487 144.781 98.4474 144.781C92.4073 144.781 87.5107 139.885 87.5107 133.844C87.5107 127.804 92.4073 122.908 98.4474 122.908ZM106.759 101.052V55.5551C106.759 50.7229 102.842 46.8058 98.0099 46.8058C93.1777 46.8058 89.2606 50.7229 89.2606 55.5551V101.052C89.2606 105.884 93.1777 109.801 98.0099 109.801C102.842 109.801 106.759 105.884 106.759 101.052ZM157.505 168.421C157.505 174.461 162.402 179.358 168.442 179.358C174.482 179.358 179.379 174.461 179.379 168.421C179.379 162.381 174.482 157.485 168.442 157.485C162.402 157.485 157.505 162.381 157.505 168.421Z" fill="#FF8A4C"/>
</g>
<defs>
<clipPath id="clip0">
<rect width="224" height="224" fill="white"/>
</clipPath>
</defs>
</svg>
