<svg width="223" height="223" viewBox="0 0 223 223" fill="none" xmlns="http://www.w3.org/2000/svg">
<g clip-path="url(#clip0)">
<path d="M30.2644 163.382C36.4675 165.736 43.5904 168.449 51.5509 171.005C51.5335 171.187 51.5174 171.372 51.5013 171.554C44.2119 169.255 36.2915 171.862 32.7244 178.714L32.6456 178.866C29.3319 185.231 30.9635 192.876 36.18 197.378C36.1779 197.77 36.1822 198.156 36.19 198.527C36.2018 199.106 36.2262 199.693 36.2593 200.281C28.8354 197.103 22.3667 193.781 16.7368 190.773C9.39433 186.851 6.58897 177.742 10.4327 170.358L10.5115 170.206C14.238 163.047 22.7177 160.518 30.2644 163.382ZM112.371 8.71094C88.9613 8.71094 69.5486 25.8127 65.9375 48.2037C64.3834 48.0108 62.8007 47.9102 61.1944 47.9102C40.1466 47.9102 23.084 64.9727 23.084 86.0205C23.084 90.8969 24.0013 95.559 25.6703 99.8448C15.3365 105.253 8.36383 116.208 8.72402 128.762L15.6797 135.455C26.5684 124.566 34.7384 120.849 42.9158 116.727C48.1619 114.082 50.9943 108.266 49.827 102.508C49.1158 98.9985 47.871 91.9418 47.9154 90.5937C48.351 77.3723 57.0562 70.123 67.9449 71.3064C69.4711 71.4724 74.9189 73.2394 76.7826 73.5669C81.1842 74.3409 85.3428 71.4532 86.2379 67.0747C90.2149 47.6205 107.421 27.8754 128.05 27.8754C138.788 27.8754 148.599 31.8415 156.1 38.3869C149.191 21.0021 132.217 8.71094 112.371 8.71094ZM93.2846 143.221C90.0894 142.787 86.9138 142.908 84.0005 143.72C79.0348 145.105 74.8727 148.434 72.7764 153.514C68.7498 163.273 73.5835 173.053 84.4574 177.028C90.464 179.224 97.5843 180.13 104.942 180.292C105.035 178.77 105.166 177.251 105.339 175.734C98.5765 172.068 95.8251 165.132 98.6828 158.207C100.352 154.162 103.665 151.513 107.618 150.41C107.827 150.352 108.041 150.303 108.254 150.253C108.377 148.241 108.511 146.23 108.598 144.217C103.821 144.264 98.7346 143.963 93.2846 143.221Z" fill="#A4CAFE"/>
<path d="M0 130.337C0 117.493 5.91952 105.29 15.8038 97.1008C15.0116 93.4662 14.5908 89.4574 14.5908 85.3672C14.5908 72.8613 19.4402 61.2022 28.2452 52.537C36.4993 44.4145 47.394 39.738 59.115 39.2432C62.2009 29.2979 68.0564 20.327 76.0521 13.4549C86.1464 4.77839 99.0447 0 112.371 0C126.913 0 140.676 5.56716 151.126 15.6753C159.553 23.827 165.103 34.2283 167.19 45.5604C189.002 47.6183 208.354 61.5776 217.471 82.294C219.408 86.6973 217.41 91.8381 213.007 93.7759C208.603 95.7136 203.463 93.7149 201.525 89.3115C194.465 73.2694 178.956 62.8694 161.945 62.7253C149.611 62.8681 138.273 68.1374 129.973 77.6066C128.251 79.5714 125.841 80.5757 123.419 80.5757C121.381 80.5757 119.334 79.8645 117.68 78.4154C114.063 75.2442 113.7 69.7406 116.872 66.123C125.571 56.199 137.089 49.4485 149.63 46.6915C145.585 29.7796 130.472 17.4219 112.371 17.4219C93.4549 17.4219 77.5435 30.9508 74.5378 49.5905C73.7912 54.2182 69.5107 57.4225 64.8651 56.848C63.6504 56.6973 62.4156 56.6211 61.1943 56.6211C44.8308 56.6211 32.0127 69.248 32.0127 85.3672C32.0127 89.5376 32.6225 93.5468 33.6904 96.4279C33.7405 96.5329 33.7902 96.6361 33.8402 96.738C35.8324 100.829 34.3411 105.763 30.4173 108.065C22.4015 112.768 17.4219 121.303 17.4219 130.337C17.4219 135.148 13.522 139.048 8.71094 139.048C3.89989 139.048 0 135.148 0 130.337H0ZM216.516 176.745L216.53 176.69C215.31 176.365 204.164 173.75 188.91 182.027C169.109 192.771 138.539 205.578 105.351 205.578C68.0703 205.578 42.701 194.77 20.8387 183.09C17.7255 181.427 16.5225 177.52 18.1566 174.381C19.9733 170.89 24.1432 170.379 27.1712 171.526C45.2394 178.384 73.59 188.886 106.707 189.027C116.724 189.027 126.292 187.881 134.618 185.692C139.271 184.47 142.051 179.707 140.829 175.054C139.606 170.401 134.843 167.619 130.19 168.843C123.082 170.711 114.993 171.657 106.706 171.605C99.0011 171.518 92.2083 170.588 87.4461 168.847C84.1398 167.639 81.7386 165.654 80.6851 163.259C79.8262 161.307 79.8736 159.146 80.8266 156.837C82.0549 153.859 84.5018 152.623 86.338 152.111C87.9835 151.653 89.9792 151.563 92.1077 151.853C97.5451 152.592 102.675 152.925 107.517 152.925C134.444 152.926 152.558 142.637 166.354 134.803C175.568 129.57 182.845 125.438 189.896 125.438C200.55 125.438 211.685 129.395 211.685 129.395C216.276 130.831 221.163 128.276 222.6 123.684C224.037 119.093 221.48 114.206 216.889 112.769C216.889 112.769 203.499 108.016 189.896 108.016C178.244 108.016 168.29 113.669 157.752 119.653C142.072 128.557 124.301 138.649 94.4566 134.59C89.9322 133.975 85.6268 134.224 81.6585 135.33C73.8992 137.494 67.7262 142.911 64.7218 150.192C62.6617 155.186 62.1477 160.438 63.1787 165.398C52.0087 162.318 41.7459 158.424 33.3529 155.238C21.3187 150.673 8.4618 155.274 2.78227 166.184C-3.23742 177.748 1.13329 192.315 12.6296 198.457C27.5409 206.423 58.5697 223 105.351 223C142.194 223 175.645 209.046 197.219 197.34C205.011 193.112 210.381 193.345 211.869 193.521C212.637 193.743 213.447 193.868 214.286 193.868C219.097 193.868 222.997 189.969 222.997 185.158C222.998 181.119 220.245 177.731 216.516 176.745Z" fill="#1C63F2"/>
<path d="M100.611 98.4336C100.611 104.447 95.7363 109.322 89.7227 109.322C83.7091 109.322 78.834 104.447 78.834 98.4336C78.834 92.42 83.7091 87.5449 89.7227 87.5449C95.7363 87.5449 100.611 92.42 100.611 98.4336ZM16.9863 9.58203C10.9727 9.58203 6.09766 14.4571 6.09766 20.4707C6.09766 26.4843 10.9727 31.3594 16.9863 31.3594C22.9999 31.3594 27.875 26.4843 27.875 20.4707C27.875 14.4571 22.9999 9.58203 16.9863 9.58203ZM188.592 0C182.578 0 177.703 4.87508 177.703 10.8887C177.703 16.9023 182.578 21.7773 188.592 21.7773C194.605 21.7773 199.48 16.9023 199.48 10.8887C199.48 4.87508 194.605 0 188.592 0ZM212.111 32.9927C206.098 32.9927 201.223 37.8678 201.223 43.8813C201.223 49.8949 206.098 54.77 212.111 54.77C218.125 54.77 223 49.8949 223 43.8813C223 37.8678 218.125 32.9927 212.111 32.9927Z" fill="#FF8A4C"/>
</g>
<defs>
<clipPath id="clip0">
<rect width="223" height="223" fill="white"/>
</clipPath>
</defs>
</svg>
