<svg width="224" height="224" viewBox="0 0 224 224" fill="none" xmlns="http://www.w3.org/2000/svg">
<g clip-path="url(#clip0)">
<path d="M96.0918 178.659L60.552 143.096C48.1991 130.734 48.4734 122.14 53.5963 105.425C56.8397 94.8431 68.0288 55.514 77.0137 34.9588C64.5851 38.5911 52.6469 42.8696 48.1737 47.3463C39.2036 56.3238 30.6781 95.6285 26.5663 109.045C21.4434 125.76 25.9643 143.938 38.3172 156.301L67.653 185.66C79.2302 197.246 95.9737 201.987 111.909 198.226C117.613 196.879 123.269 194.888 128.719 192.481C116.61 192.286 104.867 187.441 96.0918 178.659Z" fill="#A4CAFE"/>
<path d="M212.621 61.2625C211.763 61.2625 210.891 61.1356 210.028 60.8683C205.411 59.4376 202.829 54.536 204.26 49.9202C205.934 44.5146 206.499 42.6932 206.499 37.9339C206.499 28.0599 201.365 17.5082 186.956 17.5082C182.937 17.5082 179 18.2021 174.191 19.7584C169.59 21.2469 164.659 18.725 163.172 14.1271C161.684 9.52917 164.205 4.59569 168.803 3.10769C175.339 0.992712 181.107 0.00741577 186.955 0.00741577C197.959 0.00741577 207.369 3.87685 214.166 11.1966C220.507 18.0241 223.999 27.52 223.999 37.9334C223.999 45.3424 222.796 49.2241 220.975 55.0996C219.813 58.8535 216.354 61.2625 212.621 61.2625ZM55.0921 220.97C59.7084 219.54 62.2911 214.638 60.8613 210.022C59.431 205.406 54.5304 202.824 49.9132 204.253C44.5059 205.928 42.6845 206.493 37.9269 206.493C28.0521 206.493 17.5008 201.359 17.5008 186.949C17.5008 182.93 18.1947 178.994 19.751 174.185C21.2386 169.587 18.7176 164.653 14.1197 163.165C9.52088 161.678 4.58828 164.199 3.10027 168.797C0.985296 175.333 0 181.102 0 186.949C0 197.953 3.86943 207.363 11.1891 214.161C18.0167 220.501 27.513 223.993 37.9265 223.993C45.3324 223.993 49.2149 222.791 55.0921 220.97ZM113.919 206.742C138.175 201.017 160.608 185.149 172.447 173.301C182.669 163.071 201.441 139.009 206.959 113.715C211.044 94.9883 205.401 75.719 191.862 62.1699L161.848 32.1337C147.346 17.6202 126.109 12.2142 106.422 18.0276C103.84 18.7897 99.9629 19.7842 95.4744 20.9353C70.9934 27.2133 50.0698 33.0687 41.984 41.1615C34.0111 49.1405 27.9895 70.0361 21.498 94.4948C20.1973 99.3963 19.0737 103.63 18.2 106.481C12.1141 126.338 17.4509 147.797 32.1276 162.486L61.4633 191.845C68.195 198.581 76.5958 203.517 85.7584 206.116C90.7383 207.529 95.8909 208.237 101.047 208.237C105.368 208.237 109.693 207.74 113.919 206.742ZM149.469 44.5037L179.483 74.5399C188.791 83.8552 192.67 97.1059 189.861 109.986C185.809 128.558 171.577 149.413 160.068 160.931C149.044 171.963 129.255 185.141 109.899 189.709C96.8128 192.798 83.3328 188.972 73.843 179.474L44.5072 150.115C34.4167 140.017 30.7481 125.262 34.9325 111.609C35.9038 108.44 37.0667 104.057 38.4134 98.9837C40.6544 90.5396 43.4432 80.0312 46.4695 70.9667C50.9064 57.6792 53.6334 54.2617 54.3637 53.5311C55.1013 52.793 58.5481 50.0458 71.9581 45.6697C81.0734 42.6945 91.4694 40.0283 99.8225 37.8862C104.476 36.6931 108.494 35.6627 111.378 34.8113C114.975 33.749 118.645 33.2323 122.285 33.2323C132.339 33.2327 142.153 37.1809 149.469 44.5037Z" fill="#1C63F2"/>
<path d="M144.819 152.677C142.58 152.677 140.34 151.823 138.631 150.115L102.755 114.238C99.3373 110.82 99.3373 105.28 102.755 101.863C106.172 98.4456 111.713 98.4452 115.13 101.863L151.007 137.739C154.424 141.157 154.424 146.698 151.007 150.115C149.298 151.823 147.059 152.677 144.819 152.677ZM68.3976 117.491C69.3361 114.43 74.0425 98.4268 77.8262 85.5405C78.9847 81.5928 82.0356 78.549 85.9864 77.3987C97.9827 73.9056 114.241 69.1698 116.914 68.381C121.549 67.0124 124.197 62.1455 122.829 57.5108C121.46 52.8748 116.59 50.2278 111.958 51.596C109.313 52.3769 93.0768 57.1065 81.0945 60.5953C71.3824 63.423 63.8833 70.9051 61.0337 80.6106C55.7047 98.7615 52.3778 110.038 51.6651 112.362C50.2488 116.983 52.8464 121.876 57.467 123.292C58.3215 123.555 59.1852 123.679 60.0344 123.679C63.7778 123.679 67.243 121.257 68.3976 117.491Z" fill="#FF8A4C"/>
</g>
<defs>
<clipPath id="clip0">
<rect width="224" height="224" fill="white"/>
</clipPath>
</defs>
</svg>
