<svg width="224" height="224" viewBox="0 0 224 224" fill="none" xmlns="http://www.w3.org/2000/svg">
<g clip-path="url(#clip0)">
<path d="M107.769 181.755L55.1691 129.155C47.4595 121.445 47.4595 108.946 55.1691 101.237L115.039 41.3671C121.242 35.1644 128.83 31.1926 136.809 29.4512C120.047 20.2896 98.6026 22.8009 84.4121 36.9919L37.4359 83.9676C20.1893 101.214 20.1893 129.177 37.4359 146.423L77.1427 186.13C91.3332 200.321 112.778 202.832 129.539 193.671C121.561 191.929 113.972 187.958 107.769 181.755Z" fill="#A4CAFE"/>
<path d="M108.371 207.791C94.8203 207.791 81.2707 202.633 70.9549 192.318L31.2482 152.612C10.6177 131.981 10.6177 98.4115 31.2482 77.7806L78.2243 30.8045C98.8551 10.1737 132.424 10.1745 153.055 30.8045L192.762 70.5112C213.392 91.1421 213.392 124.711 192.762 145.342L145.786 192.318C135.471 202.633 121.921 207.791 108.371 207.791ZM115.64 32.8241C106.571 32.8241 97.5032 36.2761 90.6 43.1798L43.6239 90.1559C29.8161 103.963 29.8161 126.429 43.6239 140.236L83.3306 179.943C97.1374 193.751 119.604 193.75 133.411 179.943L180.387 132.967C194.194 119.16 194.194 96.6942 180.387 82.8869L140.68 43.1802C133.777 36.2761 124.708 32.8241 115.64 32.8241ZM220.543 61.2529C222.624 54.6507 224 50.289 224 42.0094C224 17.2794 206.908 0.00743103 182.435 0.00743103C175.82 0.00743103 169.281 1.10736 161.856 3.46778C157.251 4.93216 154.704 9.85295 156.169 14.4583C157.633 19.0636 162.553 21.6091 167.159 20.1456C172.895 18.3216 177.607 17.5083 182.435 17.5083C200.177 17.5083 206.499 30.1648 206.499 42.0094C206.499 47.5957 205.778 49.8813 203.852 55.9899C202.399 60.5992 204.956 65.5139 209.566 66.9669C210.442 67.243 211.328 67.3742 212.2 67.3742C215.917 67.3738 219.366 64.9858 220.543 61.2529ZM61.2454 220.537C65.8543 219.084 68.4125 214.169 66.9594 209.56C65.5064 204.95 60.5892 202.394 55.9825 203.846C49.8738 205.772 47.5878 206.493 42.002 206.493C30.1574 206.493 17.5008 200.171 17.5008 182.429C17.5008 177.601 18.3142 172.889 20.1382 167.153C21.603 162.548 19.0562 157.627 14.4509 156.162C9.8429 154.697 4.92473 157.245 3.46035 161.85C1.09993 169.275 0 175.814 0 182.429C0 206.902 17.272 223.993 42.002 223.993C50.282 223.993 54.6437 222.618 61.2454 220.537Z" fill="#1C63F2"/>
<path d="M107.667 149.077C105.429 149.077 103.191 148.224 101.482 146.517C98.0636 143.102 98.0605 137.561 101.476 134.142L134.454 101.13C137.869 97.7106 143.41 97.7088 146.829 101.124C150.248 104.539 150.251 110.08 146.835 113.499L113.857 146.511C112.149 148.222 109.907 149.077 107.667 149.077ZM89.1185 121.772L122.097 88.7602C125.512 85.3414 125.509 79.8007 122.09 76.3854C118.671 72.9701 113.13 72.9723 109.715 76.3919L76.7371 109.404C73.3213 112.823 73.3244 118.364 76.7436 121.779C78.4522 123.485 80.6901 124.339 82.928 124.339C85.1685 124.339 87.4099 123.483 89.1185 121.772Z" fill="#FF8A4C"/>
</g>
<defs>
<clipPath id="clip0">
<rect width="224" height="224" fill="white"/>
</clipPath>
</defs>
</svg>
