<svg width="224" height="224" viewBox="0 0 224 224" fill="none" xmlns="http://www.w3.org/2000/svg">
<g clip-path="url(#clip0)">
<path d="M50.7605 205.008C50.7605 168 35 153.125 35 153.125V134.75C35 121.799 43.1979 110.763 54.6875 106.548C51.4627 105.364 47.9784 104.562 44.3433 104.562H38.7817C22.1957 104.562 8.75 118.164 8.75 134.75V161.875C8.75 161.875 24.5105 168 24.5105 205.008C24.5105 210.822 29.8537 215.25 35.6676 215.25H47.4574C50.1235 215.25 52.689 214.317 54.6875 212.747C52.3285 210.895 50.7605 208.155 50.7605 205.008Z" fill="#A4CAFE"/>
<path d="M111.562 59.5C127.967 59.5 141.312 46.1541 141.312 29.75C141.312 13.3459 127.967 0 111.562 0C95.1584 0 81.8125 13.3459 81.8125 29.75C81.8125 46.1541 95.1584 59.5 111.562 59.5ZM111.562 17.5C118.317 17.5 123.812 22.9954 123.812 29.75C123.812 36.5046 118.317 42 111.562 42C104.808 42 99.3125 36.5046 99.3125 29.75C99.3125 22.9954 104.808 17.5 111.562 17.5ZM150.031 95.6572C152.05 100.048 150.127 105.244 145.736 107.262C144.553 107.807 143.31 108.065 142.087 108.065C138.775 108.065 135.606 106.175 134.131 102.968C130.56 95.2 123.595 90.5625 115.5 90.5625C110.667 90.5625 106.75 86.6451 106.75 81.8125C106.75 76.9799 110.667 73.0625 115.5 73.0625C130.391 73.0625 143.623 81.7206 150.031 95.6572ZM140.694 179.676C138.829 187.411 137.857 195.684 137.805 204.264C137.738 215.147 128.807 224 117.895 224H106.106C95.1939 224 86.2623 215.15 86.1963 204.271C85.9989 171.783 72.5537 154.459 72.4176 154.293C71.1371 152.73 70.4375 150.771 70.4375 148.75V146.067C70.4375 136.983 67.0924 128.261 61.0181 121.507C60.9346 121.414 60.8528 121.319 60.7731 121.222C56.6278 116.196 50.6393 113.312 44.3428 113.312H38.7817C27.0471 113.312 17.5 122.93 17.5 134.75V158.056C19.3773 160.03 21.7394 162.932 24.0756 166.929C30.0352 177.125 33.124 189.616 33.2561 204.054C33.2684 205.38 34.363 206.5 35.6466 206.5H47.4574C48.755 206.5 49.8588 205.38 49.868 204.056C49.9078 198.232 50.3217 192.465 51.0974 186.913C51.7663 182.127 56.189 178.793 60.9744 179.459C65.7602 180.128 69.0979 184.55 68.4289 189.336C67.7591 194.127 67.4021 199.119 67.3676 204.176C67.2927 215.107 58.3612 224 47.4574 224H35.6466C24.7791 224 15.8567 215.125 15.757 204.215C15.5282 179.253 4.63094 169.791 3.57131 168.931C1.18037 167.306 0 164.774 0 161.875V134.75C0 113.28 17.3976 95.8125 38.7817 95.8125H44.3433C55.8219 95.8125 66.6759 100.96 74.1541 109.942C83.0182 119.867 87.9086 132.641 87.9375 145.949C92.5422 152.855 103.504 172.591 103.695 204.165C103.703 205.408 104.829 206.5 106.105 206.5H117.895C119.171 206.5 120.297 205.405 120.305 204.157C120.365 194.232 121.502 184.616 123.681 175.575C124.814 170.877 129.54 167.985 134.238 169.119C138.936 170.251 141.827 174.978 140.694 179.676ZM41.125 81.375C57.5291 81.375 70.875 68.0291 70.875 51.625C70.875 35.2209 57.5291 21.875 41.125 21.875C24.7209 21.875 11.375 35.2209 11.375 51.625C11.375 68.0291 24.7209 81.375 41.125 81.375ZM41.125 39.375C47.8796 39.375 53.375 44.8704 53.375 51.625C53.375 58.3796 47.8796 63.875 41.125 63.875C34.3704 63.875 28.875 58.3796 28.875 51.625C28.875 44.8704 34.3704 39.375 41.125 39.375ZM224 134.75V161.875C224 164.771 222.822 167.301 220.435 168.927C220.216 169.107 219.416 169.797 218.338 171.059C216.608 173.085 214.152 174.125 211.682 174.125C209.671 174.125 207.651 173.436 206.002 172.027C202.328 168.888 201.895 163.364 205.034 159.691C205.548 159.089 206.039 158.548 206.5 158.062V134.75C206.5 122.929 196.953 113.312 185.219 113.312H176.312C171.48 113.312 167.562 109.395 167.562 104.562C167.562 99.7299 171.48 95.8125 176.312 95.8125H185.218C206.603 95.8125 224 113.28 224 134.75ZM212.625 51.625C212.625 35.2209 199.279 21.875 182.875 21.875C166.471 21.875 153.125 35.2209 153.125 51.625C153.125 68.0291 166.471 81.375 182.875 81.375C199.279 81.375 212.625 68.0295 212.625 51.625ZM170.625 51.625C170.625 44.8704 176.12 39.375 182.875 39.375C189.63 39.375 195.125 44.8704 195.125 51.625C195.125 58.3796 189.63 63.875 182.875 63.875C176.12 63.875 170.625 58.38 170.625 51.625Z" fill="#1C63F2"/>
<path d="M11.8124 20.5626C9.5728 20.5626 7.33368 19.7086 5.62524 18.0001L2.56274 14.9376C-0.854572 11.5203 -0.854572 5.97982 2.56274 2.56294C5.98005 -0.853933 11.5201 -0.85437 14.937 2.56294L17.9995 5.62544C21.4168 9.04275 21.4168 14.5833 17.9995 18.0001C16.2911 19.7086 14.0519 20.5626 11.8124 20.5626ZM221.437 221.438C224.854 218.02 224.854 212.48 221.437 209.063L90.187 77.8129C86.7697 74.3956 81.2296 74.3956 77.8127 77.8129C74.3959 81.2303 74.3954 86.7708 77.8127 90.1876L209.063 221.438C210.771 223.146 213.011 224 215.25 224C217.489 224 219.729 223.146 221.437 221.438Z" fill="#FF8A4C"/>
</g>
<defs>
<clipPath id="clip0">
<rect width="224" height="224" fill="white"/>
</clipPath>
</defs>
</svg>
