<svg width="223" height="223" viewBox="0 0 223 223" fill="none" xmlns="http://www.w3.org/2000/svg">
<g clip-path="url(#clip0)">
<path d="M53.8832 193.461C49.6662 189.244 48.3159 183.064 49.8155 177.54C50.2065 176.1 48.8101 174.794 47.4286 175.358C41.4425 177.799 34.1823 177.01 29.5382 172.365C23.2726 166.1 23.2726 155.848 29.5382 149.582C30.6428 148.486 29.6832 146.629 28.1492 146.887C22.9961 147.752 17.4676 146.294 13.6455 142.472C7.37988 136.207 7.37988 125.955 13.6455 119.689L21.3559 112.255C25.5951 108.015 31.6582 106.649 37.0783 108.146C39.3738 112.805 46.512 133.505 46.61 135.858C47.0454 146.308 58.3083 158.364 61.4141 161.112C64.8583 164.159 87.5391 178.093 87.5391 197.687L79.6006 194.724C79.8296 193.157 77.9173 192.211 76.7969 193.331C70.4599 199.668 60.1488 199.726 53.8832 193.461ZM106.701 71.4518C136.028 41.6188 174.479 19.0516 215.991 16.7509L201.426 8.71094C157.262 8.71399 114.949 26.4541 83.9883 57.9491C77.0826 64.8548 76.9511 76.2888 83.9874 83.0608C88.8349 87.7263 95.7175 89.0312 101.708 86.9835C100.817 81.5081 102.507 75.6452 106.701 71.4518Z" fill="#A4CAFE"/>
<path d="M46.6097 8.70832C46.6097 3.89871 50.5084 1.45872e-07 55.318 1.45872e-07H95.8117C100.621 1.45872e-07 104.52 3.89871 104.52 8.70832C104.52 13.5179 100.621 17.4166 95.8117 17.4166H55.318C50.5084 17.4166 46.6097 13.5179 46.6097 8.70832ZM217.524 113.552C217.511 113.529 217.498 113.507 217.485 113.485C201.579 87.2338 184.774 67.2561 166.11 52.4093C164.569 51.1836 162.658 50.5161 160.689 50.5161C140.083 50.5161 119.925 58.8891 105.383 73.4882L102.218 76.6654C98.8879 79.9964 93.4182 80.0508 90.0267 76.7869C88.4 75.2207 87.4913 73.0619 87.4687 70.7085C87.4452 68.2384 88.4209 65.8318 90.1465 64.1067C90.1639 64.0889 90.1813 64.0714 90.1987 64.054C119.33 34.4196 159.871 17.4219 201.427 17.4188L214.247 17.4166C219.056 17.4158 222.954 13.5162 222.954 8.70658C222.952 3.89741 219.053 -0.000870686 214.244 1.45872e-07L201.426 0.00217723C178.285 0.00391889 155.73 4.54139 134.389 13.4892C113.058 22.4326 94.0191 35.3296 77.8016 51.8202C72.8086 56.8292 69.985 63.7714 70.0529 70.8739C70.1204 77.9425 72.9245 84.4986 77.9487 89.3347C82.9016 94.1016 89.4341 96.6832 96.2967 96.631C103.185 96.5687 109.662 93.8517 114.546 88.9681L117.723 85.7787C128.313 75.1462 142.739 68.7648 157.69 68.008C173.755 81.347 188.462 99.2012 202.568 122.476C207.575 130.927 204.89 133.612 203.879 134.623C201.023 137.479 196.394 137.508 193.501 134.712L191.883 132.973C188.607 129.452 183.096 129.254 179.576 132.53C176.055 135.807 175.856 141.317 179.133 144.838C179.133 144.838 183.022 148.715 184.058 149.468C185.457 151.099 186.127 153.239 185.901 155.432C185.409 160.216 188.556 165.031 194.574 165.031C198.983 165.031 202.766 161.693 203.226 157.212C203.345 156.052 203.376 154.897 203.339 153.751C208.052 152.85 212.553 150.58 216.195 146.939C221.151 141.982 227.916 131.052 217.524 113.552ZM155.9 184.188C155.887 184.188 155.874 184.188 155.861 184.188C153.84 184.208 151.988 183.434 150.572 182.019L147.618 179.085C144.205 175.696 138.691 175.716 135.303 179.129C131.914 182.542 131.933 188.055 135.346 191.444C135.346 191.444 136.518 192.708 136.769 192.959C139.655 195.845 139.655 200.541 136.769 203.427C135.384 204.813 133.525 205.576 131.535 205.576C129.546 205.576 127.687 204.813 126.301 203.427C126.262 203.388 125.75 202.895 125.75 202.895C122.459 199.726 118.132 198.033 113.562 198.119C109.033 198.207 104.807 200.039 101.649 203.28C98.5896 206.297 93.6472 206.283 90.6045 203.241C88.7492 201.385 87.8344 198.605 88.2176 195.983C88.8633 191.564 86.6139 187.247 82.6203 185.242C78.6197 183.233 73.8057 184.008 70.639 187.174C69.2056 188.607 67.2967 189.402 65.2638 189.414C63.2735 189.426 61.4134 188.676 60.0409 187.304C58.1721 185.435 57.4742 182.569 58.2196 179.822C59.2794 175.918 58.0568 171.829 55.0284 169.15C52.0236 166.492 47.851 165.782 44.1391 167.295C41.0625 168.55 37.59 168.103 35.6955 166.208C34.31 164.823 33.5468 162.964 33.5468 160.974C33.5468 158.984 34.3096 157.125 35.6698 155.766C38.8702 152.592 39.6391 147.766 37.5835 143.757C35.5262 139.745 31.1555 137.552 26.7064 138.299C24.1096 138.735 21.4635 137.975 19.8033 136.315C18.4178 134.93 17.6545 133.071 17.6545 131.081C17.6545 129.113 18.4008 127.273 19.7576 125.893L27.4004 118.524C27.4383 118.487 27.4762 118.45 27.5136 118.413C30.3996 115.527 35.096 115.527 37.9819 118.413C40.1172 120.548 40.7973 123.816 39.6739 126.543C37.9884 130.636 39.4331 135.394 43.1098 137.855C46.7838 140.316 51.7293 139.84 54.8939 136.7C57.7798 133.814 62.4762 133.814 65.3622 136.7C67.5353 138.873 68.2551 141.816 67.2397 144.381C65.771 148.091 66.6249 152.337 69.4141 155.2C72.2073 158.066 76.4357 159.031 80.1872 157.658C82.9107 156.661 85.9787 157.324 88.0034 159.349C89.4437 160.79 90.2057 162.723 90.1491 164.792C90.0172 169.6 93.8074 173.604 98.6153 173.736C103.418 173.859 107.427 170.077 107.559 165.27C107.746 158.469 105.107 151.822 100.319 147.034C96.1526 142.867 90.6916 140.409 84.9994 139.893C84.49 134.203 81.9724 128.68 77.6779 124.385C71.9922 118.699 64.2135 116.354 56.8067 117.345C55.6946 113.188 53.4962 109.296 50.2976 106.097C45.6226 101.422 39.39 98.8477 32.7482 98.8477C26.1355 98.8477 19.9296 101.399 15.2615 106.035L7.60119 113.421C7.56331 113.458 7.52543 113.495 7.48798 113.532C-2.1887 123.209 -2.1887 138.954 7.48798 148.631C10.164 151.307 13.421 153.289 16.977 154.491C16.4188 156.578 16.131 158.754 16.131 160.975C16.131 167.616 18.706 173.849 23.3811 178.524C27.9704 183.114 34.2282 185.503 40.7494 185.448C41.4774 190.764 43.8757 195.769 47.7261 199.619C52.3802 204.273 58.5862 206.831 65.2167 206.831C65.2651 206.831 65.3147 206.831 65.363 206.83C67.7073 206.817 70.0024 206.484 72.1964 205.853C73.4679 209.466 75.5317 212.799 78.2897 215.557C83.2133 220.481 89.6793 222.943 96.1469 222.942C102.567 222.941 108.99 220.515 113.899 215.661L114.053 215.81C118.883 220.603 125.21 223.001 131.536 223.001C137.892 223.001 144.247 220.582 149.086 215.743C153.058 211.771 155.396 206.775 156.107 201.597C160.837 201.485 164.629 197.612 164.608 192.86C164.587 188.062 160.692 184.188 155.9 184.188Z" fill="#1C63F2"/>
<path d="M214.245 222.941C212.016 222.941 209.787 222.09 208.087 220.39L110.119 122.422C106.718 119.021 106.718 113.507 110.119 110.106C113.52 106.706 119.033 106.705 122.434 110.106L220.402 208.075C223.804 211.476 223.804 216.99 220.402 220.39C218.702 222.09 216.474 222.941 214.245 222.941ZM56.6861 56.6738C60.0871 53.2728 60.0871 47.7591 56.6861 44.3585L14.8862 2.55859C11.4851 -0.842446 5.97147 -0.842446 2.57088 2.55859C-0.829723 5.95962 -0.830158 11.4733 2.57088 14.8739L44.3708 56.6738C46.0711 58.3741 48.2996 59.2245 50.5285 59.2245C52.7573 59.2245 54.9858 58.3741 56.6861 56.6738Z" fill="#FF8A4C"/>
</g>
<defs>
<clipPath id="clip0">
<rect width="223" height="223" fill="white"/>
</clipPath>
</defs>
</svg>
