<svg width="223" height="223" viewBox="0 0 223 223" fill="none" xmlns="http://www.w3.org/2000/svg">
<path d="M48.455 214.105C26.1855 212.174 8.71094 193.488 8.71094 170.718V97.4279C8.71094 83.8428 15.0499 71.0355 25.8519 62.7967L85.0863 17.6179C100.686 5.72003 122.314 5.72003 137.914 17.6179L141.921 20.6741C131.224 19.6183 120.218 22.5138 111.22 29.3776L40.7724 83.1084C37.0363 85.9578 34.8438 90.3877 34.8438 95.0864V182.478C34.8438 194.933 40.0734 206.167 48.455 214.105Z" fill="#A4CAFE"/>
<path d="M170.734 222.984H52.2656C23.4464 222.984 0 199.538 0 170.718V97.4284C0 81.2299 7.68958 65.6944 20.5691 55.8707L79.8035 10.6918C98.4663 -3.54229 124.534 -3.54229 143.196 10.6918L202.431 55.8707C215.31 65.694 223 81.2295 223 97.4284V170.718C223 199.538 199.554 222.984 170.734 222.984ZM111.5 17.4271C104.044 17.4271 96.5908 19.7991 90.369 24.5439L31.1346 69.7228C22.5483 76.2721 17.4219 86.629 17.4219 97.4284V170.718C17.4219 189.931 33.0528 205.562 52.2656 205.562H170.734C189.947 205.562 205.578 189.931 205.578 170.718V97.4284C205.578 86.6294 200.452 76.2721 191.865 69.7232L132.631 24.5444C126.411 19.8004 118.954 17.4271 111.5 17.4271Z" fill="#1C63F2"/>
<path d="M111.5 171.994C105.656 171.994 99.8147 170.169 94.9383 166.518C74.8165 151.451 63.977 133.406 63.5916 114.333C63.5907 114.274 63.5898 114.216 63.5898 114.157C63.5898 98.5137 76.29 85.787 91.9004 85.787C99.4998 85.787 106.41 88.7967 111.5 93.687C116.591 88.7967 123.5 85.787 131.1 85.787C146.71 85.787 159.41 98.5137 159.41 114.157C159.41 114.216 159.41 114.275 159.408 114.333C159.023 133.406 148.183 151.451 128.061 166.518C123.187 170.168 117.342 171.994 111.5 171.994ZM81.0117 114.076C81.4041 131.102 94.4736 144.405 105.381 152.572C108.984 155.27 114.017 155.27 117.619 152.572C128.526 144.406 141.595 131.102 141.988 114.076C141.944 108.076 137.077 103.208 131.099 103.208C125.095 103.208 120.21 108.093 120.21 114.097C120.21 118.908 116.311 122.808 111.5 122.808C106.689 122.808 102.789 118.908 102.789 114.097C102.789 108.093 97.904 103.208 91.9 103.208C85.9229 103.208 81.0553 108.076 81.0117 114.076Z" fill="#FF8A4C"/>
</svg>
