<?xml version="1.0" encoding="UTF-8" standalone="no"?><!DOCTYPE svg PUBLIC "-//W3C//DTD SVG 1.1//EN" "http://www.w3.org/Graphics/SVG/1.1/DTD/svg11.dtd"><svg width="100%" height="100%" viewBox="0 0 147 143" version="1.1" xmlns="http://www.w3.org/2000/svg" xmlns:xlink="http://www.w3.org/1999/xlink" xml:space="preserve" xmlns:serif="http://www.serif.com/" style="fill-rule:evenodd;clip-rule:evenodd;stroke-linejoin:round;stroke-miterlimit:2;"><g><path d="M76.787,41.23l-26.38,-0.155l12.955,79.912l31.562,-0l12.954,-79.912l-31.091,0.155Z" style="fill:#f7911d;fill-rule:nonzero;"/><path d="M76.787,41.23l-26.38,-0.155l12.955,79.912l24.967,-0l12.954,-79.912l-24.496,0.155Z" style="fill:#fcdd05;fill-rule:nonzero;"/><rect x="42.87" y="33.706" width="68.07" height="7.369" style="fill:#fff;fill-rule:nonzero;"/><path d="M44.637,39.36l64.536,-0l0,-3.939l-64.536,0l0,3.939Zm68.07,3.431l-71.603,-0l-0,-10.801l71.603,0l-0,10.801Z" style="fill:#030404;fill-rule:nonzero;"/><path d="M97.75,21.731l-42.161,-0l-4.946,11.054l52.053,-0l-4.946,-11.054Z" style="fill:#fff;fill-rule:nonzero;"/><path d="M53.336,31.069l46.667,0l-3.411,-7.623l-39.845,-0l-3.411,7.623Zm52.054,3.431l-57.44,0l6.481,-14.485l44.477,0l6.482,14.485Z" style="fill:#050606;fill-rule:nonzero;"/><path d="M60.161,119.272l33.252,-0l12.397,-76.471l-29.032,0.145l-29.013,-0.145l12.396,76.471Zm36.273,3.43l-39.293,0l-13.512,-83.352l33.158,0.165l33.159,-0.165l-13.512,83.352Z" style="fill:#030404;fill-rule:nonzero;"/><path d="M108.82,63.644l-64.301,-0l5.805,31.78l26.346,-0.276l26.345,0.276l5.805,-31.78Z" style="fill:#fff;fill-rule:nonzero;"/><path d="M76.65,93.432l24.887,0.262l5.176,-28.335l-60.087,0l5.176,28.335l24.848,-0.262Zm27.843,3.724l-27.843,-0.294l-27.804,0.294l-6.435,-35.228l68.517,0l-6.435,35.228Z" style="fill:#030404;fill-rule:nonzero;"/></g></svg>