<svg width="224" height="225" viewBox="0 0 224 225" fill="none" xmlns="http://www.w3.org/2000/svg">
<path d="M89.25 112.5C89.25 89.884 104.437 70.8337 125.125 65.0698C120.947 63.9062 116.547 63.2812 112 63.2812C84.938 63.2812 63 85.3172 63 112.5C63 139.683 84.938 161.719 112 161.719C116.547 161.719 120.947 161.094 125.125 159.93C104.437 154.166 89.25 135.116 89.25 112.5Z" fill="#A4CAFE"/>
<path d="M184.625 103.711H169.088C168.395 99.1468 167.166 94.7575 165.475 90.6056L178.625 82.684C182.77 80.1874 184.114 74.7892 181.629 70.6263C179.144 66.4633 173.769 65.1129 169.625 67.609L156.471 75.5328C154.187 72.766 151.652 70.2158 148.903 67.9157L157.057 54.737C159.608 50.614 158.348 45.1951 154.244 42.6327C150.14 40.0707 144.744 41.3354 142.193 45.4584L133.917 58.8357C129.748 57.1118 125.338 55.8606 120.75 55.1575V39.5508C120.75 34.6966 116.833 30.7617 112 30.7617C107.167 30.7617 103.25 34.6966 103.25 39.5508V55.1571C98.7061 55.8536 94.3364 57.088 90.2029 58.7865L82.3165 45.5774C79.8311 41.4145 74.4568 40.0641 70.3124 42.5602C66.1679 45.0567 64.8231 50.4549 67.3085 54.6179L75.1971 67.8309C72.3892 70.1692 69.804 72.7682 67.48 75.5917L53.8668 67.5664C49.6987 65.1089 44.3371 66.5117 41.8915 70.6975C39.4454 74.8837 40.8411 80.2692 45.0087 82.7262L58.4959 90.6772C56.8199 94.8076 55.6014 99.1727 54.9119 103.711H39.375C34.5424 103.711 30.625 107.646 30.625 112.5C30.625 117.354 34.5424 121.289 39.375 121.289H54.9119C55.6014 125.827 56.8199 130.192 58.4959 134.323L45.0087 142.274C40.8411 144.731 39.445 150.116 41.8915 154.303C43.5207 157.091 46.4437 158.644 49.4462 158.644C50.9508 158.644 52.4755 158.254 53.8668 157.434L67.48 149.408C69.7935 152.219 72.3656 154.806 75.1581 157.136L66.8994 170.775C64.3882 174.922 65.6994 180.329 69.8281 182.851C71.2486 183.719 72.8175 184.133 74.3667 184.133C77.3207 184.133 80.2034 182.63 81.8506 179.909L90.1552 166.195C94.3027 167.903 98.6882 169.144 103.25 169.843V185.449C103.25 190.303 107.167 194.238 112 194.238C116.832 194.238 120.75 190.303 120.75 185.449V169.843C125.311 169.144 129.697 167.903 133.844 166.194L142.149 179.909C143.796 182.63 146.678 184.132 149.632 184.132C151.182 184.132 152.751 183.719 154.171 182.851C158.3 180.328 159.611 174.922 157.1 170.775L148.841 157.136C151.601 154.833 154.144 152.279 156.436 149.507L170.014 157.802C171.435 158.67 173.004 159.084 174.553 159.084C177.507 159.084 180.39 157.581 182.037 154.861C184.548 150.714 183.237 145.306 179.108 142.784L165.454 134.443C167.155 130.277 168.391 125.872 169.087 121.29H184.625C189.458 121.29 193.375 117.355 193.375 112.501C193.375 107.647 189.458 103.711 184.625 103.711ZM112 152.93C89.8061 152.93 71.75 134.793 71.75 112.5C71.75 90.207 89.8061 72.0703 112 72.0703C134.194 72.0703 152.25 90.207 152.25 112.5C152.25 134.793 134.194 152.93 112 152.93Z" fill="#1C63F2"/>
<path d="M21.875 71.6309C15.8344 71.6309 10.9375 66.7121 10.9375 60.6445C10.9375 54.577 15.8344 49.6582 21.875 49.6582C27.9156 49.6582 32.8125 54.577 32.8125 60.6445C32.8125 66.7121 27.9156 71.6309 21.875 71.6309ZM213.5 60.6445C213.5 54.577 208.603 49.6582 202.562 49.6582C196.522 49.6582 191.625 54.577 191.625 60.6445C191.625 66.7121 196.522 71.6309 202.562 71.6309C208.603 71.6309 213.5 66.7121 213.5 60.6445ZM32.8125 163.916C32.8125 157.848 27.9156 152.93 21.875 152.93C15.8344 152.93 10.9375 157.848 10.9375 163.916C10.9375 169.984 15.8344 174.902 21.875 174.902C27.9156 174.902 32.8125 169.984 32.8125 163.916ZM213.5 163.916C213.5 157.848 208.603 152.93 202.562 152.93C196.522 152.93 191.625 157.848 191.625 163.916C191.625 169.984 196.522 174.902 202.562 174.902C208.603 174.902 213.5 169.984 213.5 163.916ZM60.375 35.5957C66.4156 35.5957 71.3125 30.6769 71.3125 24.6094C71.3125 18.5418 66.4156 13.623 60.375 13.623C54.3344 13.623 49.4375 18.5418 49.4375 24.6094C49.4375 30.6769 54.3344 35.5957 60.375 35.5957ZM166.688 35.5957C172.728 35.5957 177.625 30.6769 177.625 24.6094C177.625 18.5418 172.728 13.623 166.688 13.623C160.647 13.623 155.75 18.5418 155.75 24.6094C155.75 30.6769 160.647 35.5957 166.688 35.5957ZM60.375 212.256C66.4156 212.256 71.3125 207.337 71.3125 201.27C71.3125 195.202 66.4156 190.283 60.375 190.283C54.3344 190.283 49.4375 195.202 49.4375 201.27C49.4375 207.337 54.3344 212.256 60.375 212.256ZM166.688 212.256C172.728 212.256 177.625 207.337 177.625 201.27C177.625 195.202 172.728 190.283 166.688 190.283C160.647 190.283 155.75 195.202 155.75 201.27C155.75 207.337 160.647 212.256 166.688 212.256ZM112.438 123.926C118.478 123.926 123.375 119.007 123.375 112.939C123.375 106.872 118.478 101.953 112.438 101.953C106.397 101.953 101.5 106.872 101.5 112.939C101.5 119.007 106.397 123.926 112.438 123.926ZM112 21.9727C118.041 21.9727 122.938 17.0539 122.938 10.9863C122.938 4.9188 118.041 0 112 0C105.959 0 101.062 4.9188 101.062 10.9863C101.062 17.0539 105.959 21.9727 112 21.9727ZM112 225C118.041 225 122.938 220.081 122.938 214.014C122.938 207.946 118.041 203.027 112 203.027C105.959 203.027 101.062 207.946 101.062 214.014C101.062 220.081 105.959 225 112 225ZM21.875 112.5C21.875 106.432 16.9781 101.514 10.9375 101.514C4.89694 101.514 0 106.432 0 112.5C0 118.568 4.89694 123.486 10.9375 123.486C16.9781 123.486 21.875 118.568 21.875 112.5ZM224 112.5C224 106.432 219.103 101.514 213.062 101.514C207.022 101.514 202.125 106.432 202.125 112.5C202.125 118.568 207.022 123.486 213.062 123.486C219.103 123.486 224 118.568 224 112.5Z" fill="#FF8A4C"/>
</svg>
