<svg width="223" height="223" viewBox="0 0 223 223" fill="none" xmlns="http://www.w3.org/2000/svg">
<g clip-path="url(#clip0)">
<path d="M115.176 189.799C115.098 188.391 115.035 186.982 114.985 185.573C107.911 183.323 102.726 176.798 102.518 168.993L100.745 146.507C100.745 131.536 87.2572 125.471 87.0085 125.256C84.8917 123.425 82.0837 123.26 86.0864 118.034C88.3996 115.013 93.1941 110.715 95.9076 107.213C99.4568 102.632 101.383 97.0019 101.383 91.2069C101.383 33.9735 156.723 17.4227 171.17 17.4227L164.199 8.71653L164.201 8.71436C164.18 8.71436 164.158 8.71566 164.136 8.71566C164.114 8.71566 164.092 8.71436 164.071 8.71436C164.07 8.71523 164.07 8.7161 164.069 8.71697C114.114 8.71697 76.362 38.3289 76.362 91.2078C68.0051 101.993 60.7528 112.42 56.0916 121.339C51.0828 130.924 58.1025 142.397 68.9076 142.425C72.5043 142.434 75.5131 145.151 75.8193 148.735L77.7004 170.742C78.7949 183.548 89.5085 193.384 102.361 193.384H115.41C115.324 192.189 115.241 190.995 115.176 189.799Z" fill="#A4CAFE"/>
<path d="M219.501 18.718C203.409 6.70304 183.943 0.229081 163.765 0.000854492C136.417 0.043538 112.498 8.21656 95.2423 23.6358C77.5726 39.4243 67.9305 61.6973 67.2532 88.1933C58.5118 99.6368 52.1816 109.178 47.9354 117.303C44.1693 124.51 44.4411 132.974 48.6632 139.944C52.6163 146.471 59.325 150.548 66.8403 151.076L68.5847 171.482C69.3007 179.855 73.1035 187.596 79.2935 193.28C85.4834 198.963 93.5206 202.093 101.924 202.093H109.322C114.125 202.093 118.033 206.001 118.033 210.804V214.288C118.033 219.099 121.933 222.999 126.744 222.999C131.555 222.999 135.455 219.099 135.455 214.288V210.804C135.455 196.394 123.732 184.671 109.322 184.671H101.924C93.5293 184.671 86.6585 178.363 85.9442 169.998L84.0631 147.991C83.3671 139.851 76.6819 133.712 68.5119 133.712C65.5746 133.712 64.0742 131.759 63.5655 130.919C63.0668 130.096 62.0511 127.909 63.3769 125.371C67.3669 117.736 73.9058 108.036 82.8122 96.5414C83.9956 95.0144 84.6372 93.1376 84.6372 91.2059C84.6372 46.3865 115.777 17.4227 163.766 17.4227C180.293 17.5738 195.917 22.8509 209.077 32.6781C212.933 35.5558 218.391 34.7648 221.269 30.9098C224.147 27.0548 223.355 21.5965 219.501 18.718Z" fill="#1C63F2"/>
<path d="M192.512 82.3192C187.701 82.3192 183.801 86.2191 183.801 91.0302C183.801 95.8412 187.701 99.7411 192.512 99.7411C199.595 99.7411 205.578 105.725 205.578 112.808C205.578 120.012 199.837 125.874 192.78 125.874C187.969 125.874 184.07 129.774 184.07 134.585C184.07 139.396 187.969 143.296 192.78 143.296C209.444 143.296 223 129.619 223 112.808C223 95.9963 209.323 82.3192 192.512 82.3192Z" fill="#1C63F2"/>
<path d="M21.7773 156.798C21.7773 162.811 16.9023 167.686 10.8887 167.686C4.87508 167.686 0 162.811 0 156.798C0 150.784 4.87508 145.909 10.8887 145.909C16.9023 145.909 21.7773 150.784 21.7773 156.798ZM10.8887 180.753C4.87508 180.753 0 185.628 0 191.641C0 197.655 4.87508 202.53 10.8887 202.53C16.9023 202.53 21.7773 197.655 21.7773 191.641C21.7773 185.628 16.9023 180.753 10.8887 180.753ZM41.377 163.331C35.3634 163.331 30.4883 168.206 30.4883 174.22C30.4883 180.233 35.3634 185.108 41.377 185.108C47.3905 185.108 52.2656 180.233 52.2656 174.22C52.2656 168.206 47.3905 163.331 41.377 163.331Z" fill="#FF8A4C"/>
</g>
<defs>
<clipPath id="clip0">
<rect width="223" height="223" fill="white"/>
</clipPath>
</defs>
</svg>
