<svg width="224" height="223" viewBox="0 0 224 223" fill="none" xmlns="http://www.w3.org/2000/svg">
<g clip-path="url(#clip0)">
<path d="M74.3454 186.02C66.3847 184.336 60.3485 177.409 60.1223 168.992L58.1059 146.506C58.1059 131.535 44.5573 125.471 44.3075 125.255C42.1813 123.425 39.3607 123.26 43.3809 118.033C45.7045 115.013 50.5205 110.715 53.2461 107.212C56.8113 102.632 58.7459 97.0015 58.7459 91.2066C58.7463 71.4297 64.4588 67.0742 78.9715 67.0742L84.4044 59.6786C76.0473 59.3925 67.6569 58.1755 59.4214 57.095C53.4119 56.3066 46.831 55.9721 41.1352 53.6659C36.16 64.4108 33.6128 76.9585 33.6128 91.2066C25.2185 101.992 17.9333 112.419 13.2516 121.338C8.22034 130.922 15.2715 142.396 26.125 142.424C29.7379 142.433 32.7602 145.15 33.0677 148.734L34.9573 170.741C36.0563 183.546 46.8179 193.383 59.7277 193.383H73.9854C74.1 190.928 74.2312 188.475 74.3454 186.02Z" fill="#A4CAFE"/>
<path d="M184.846 223C180.014 223 176.096 219.1 176.096 214.289V160.281C176.096 139.767 183.459 128.593 189.375 119.614C194.422 111.953 198.409 105.902 198.409 94.5137C198.409 90.7122 198.127 86.892 197.572 83.1585C196.865 78.3993 200.166 73.9702 204.947 73.266C209.724 72.5617 214.176 75.8479 214.883 80.6071C215.564 85.1825 215.909 89.8616 215.909 94.5137C215.909 111.106 209.586 120.702 204.008 129.169C198.421 137.648 193.596 144.97 193.596 160.281V214.289C193.596 219.1 189.679 223 184.846 223ZM93.4089 214.289V210.805C93.4089 196.395 81.6332 184.672 67.1589 184.672H59.7276C51.2948 184.672 44.3932 178.364 43.6757 169.999L41.7861 147.992C41.087 139.851 34.3714 133.713 26.1648 133.713C23.2143 133.713 21.7071 131.759 21.1961 130.919C20.6956 130.097 19.6749 127.909 21.0066 125.372C25.0146 117.737 31.5828 108.037 40.5292 96.542C41.7179 95.015 42.3623 93.1382 42.3623 91.2066C42.3623 83.7038 43.1306 76.6471 44.6456 70.2315C45.1378 68.1487 46.4284 66.3808 48.2804 65.2532C50.1778 64.0986 52.413 63.7554 54.5756 64.2859C70.8838 68.2955 90.6116 70.6143 111.626 70.9924C116.446 71.0852 120.445 67.2506 120.532 62.4404C120.619 57.6303 116.773 53.6602 111.941 53.5736C92.215 53.2186 73.8291 51.0744 58.7708 47.3723C52.035 45.7163 45.0669 46.7882 39.1498 50.3906C33.2785 53.9651 29.1804 59.595 27.6103 66.2436C25.995 73.0835 25.085 80.4551 24.8982 88.1965C16.1198 99.6379 9.76069 109.179 5.49638 117.303C1.71332 124.51 1.98632 132.975 6.22744 139.945C10.1982 146.472 16.937 150.549 24.4861 151.076L26.2383 171.483C26.9575 179.856 30.7773 187.597 36.9951 193.28C43.2128 198.964 51.2864 202.094 59.7276 202.094H67.1585C71.9833 202.094 75.9085 206.001 75.9085 210.805V214.289C75.9085 219.1 79.8259 223 84.6585 223C89.4911 223 93.4089 219.1 93.4089 214.289ZM183.053 63.5276C193.733 60.8402 202.298 57.5392 208.51 53.7169C218.964 47.283 221.159 40.1391 221.159 35.2793C221.159 23.6032 209.703 14.4619 187.109 8.10945C168.508 2.87984 143.932 0 117.909 0C94.1383 0 71.1651 2.45648 53.2219 6.91648C32.9132 11.9645 20.4834 19.1018 16.2768 28.1298C14.2438 32.494 16.1491 37.6731 20.5328 39.6975C24.917 41.7215 30.1189 39.8247 32.1528 35.4605C33.128 33.3677 39.6726 28.2417 57.4618 23.8196C74.0583 19.6937 95.5256 17.4219 117.909 17.4219C140.871 17.4219 162.746 19.7969 179.505 24.1097C196.839 28.5706 202.649 33.5476 203.584 35.2793C202.632 37.0481 196.655 42.1352 178.765 46.6371C174.08 47.8161 171.242 52.5527 172.426 57.2169C173.429 61.1647 176.991 63.7954 180.903 63.7954C181.612 63.7954 182.333 63.7087 183.053 63.5276Z" fill="#1C63F2"/>
<path d="M126.659 99.3047C124.413 99.3047 122.168 98.4497 120.459 96.7407C117.049 93.3316 117.06 87.8163 120.484 84.4216L134.409 70.6161C138.657 66.3848 138.656 59.4779 134.393 55.2339L120.486 41.4532C117.061 38.0594 117.049 32.5437 120.458 29.1342C123.867 25.7239 129.407 25.7121 132.832 29.1059L146.753 42.9005C157.852 53.9499 157.855 71.9084 146.772 82.9465L132.834 96.7664C131.126 98.4589 128.892 99.3047 126.659 99.3047Z" fill="#FF8A4C"/>
</g>
<defs>
<clipPath id="clip0">
<rect width="224" height="223" fill="white"/>
</clipPath>
</defs>
</svg>
