<svg width="224" height="223" viewBox="0 0 224 223" fill="none" xmlns="http://www.w3.org/2000/svg">
<g clip-path="url(#clip0)">
<path d="M195.56 70.6544C192.702 71.7167 189.61 72.3008 186.378 72.3008C171.853 72.3008 160.128 60.5776 160.128 46.1161C160.128 37.3647 170.765 22.3035 178.514 12.5098C182.522 7.44434 190.234 7.44434 194.241 12.5098C196.428 15.2733 198.844 18.4567 201.187 21.7991C194.106 31.2574 186.378 43.2999 186.378 50.7595C186.378 58.7239 189.938 65.8521 195.56 70.6544ZM121.628 8.71352C121.606 8.71352 121.584 8.71483 121.562 8.71483C121.54 8.71483 121.518 8.71352 121.496 8.71352C121.496 8.7144 121.495 8.71527 121.495 8.71614C71.315 8.71614 33.3939 38.3281 33.3939 91.2065C24.9995 101.992 17.7143 112.419 13.0326 121.338C8.00135 130.922 15.0525 142.395 25.906 142.424C29.5189 142.433 32.5412 145.15 32.8487 148.734L34.7383 170.741C35.8373 183.546 46.5989 193.383 59.5087 193.383H73.4286C73.1652 190.798 72.9045 188.213 72.6376 185.63C65.4425 183.433 60.1514 176.862 59.94 168.992L57.8869 146.506C57.8869 131.535 44.3384 125.471 44.0885 125.255C41.9623 123.425 39.1417 123.26 43.1619 118.033C45.4855 115.013 50.3015 110.715 53.0271 107.212C56.5923 102.632 58.5269 97.0015 58.5269 91.2065C58.5274 33.9726 114.115 17.4218 128.628 17.4218L121.625 8.7157L121.628 8.71352Z" fill="#A4CAFE"/>
<path d="M186.378 81.0117C167.079 81.0117 151.378 65.3577 151.378 46.1161C151.378 42.8055 151.378 32.7305 171.64 7.11988C175.22 2.59499 180.592 0 186.378 0C192.164 0 197.535 2.59499 201.115 7.12032C221.378 32.7309 221.378 42.806 221.378 46.1166C221.378 65.3577 205.677 81.0117 186.378 81.0117ZM186.378 17.4219C185.972 17.4219 185.639 17.5826 185.388 17.9001C172.355 34.3729 168.878 43.387 168.878 46.1166C168.878 55.7517 176.728 63.5903 186.378 63.5903C196.027 63.5903 203.878 55.7517 203.878 46.1166C203.878 43.387 200.4 34.3734 187.368 17.9001C187.116 17.5826 186.783 17.4219 186.378 17.4219ZM184.628 223C179.795 223 175.878 219.1 175.878 214.289V160.281C175.878 139.771 182.929 128.987 189.151 119.473C192.892 113.75 196.124 108.809 197.482 101.971C198.418 97.2515 203.022 94.1818 207.763 95.1147C212.503 96.0477 215.587 100.63 214.65 105.35C212.636 115.491 207.951 122.656 203.818 128.978C198.216 137.544 193.378 144.943 193.378 160.282V214.29C193.378 219.1 189.46 223 184.628 223ZM84.4401 223C79.6075 223 75.6901 219.1 75.6901 214.289V210.805C75.6901 206.001 71.7648 202.094 66.9401 202.094H59.5087C51.0676 202.094 42.9944 198.963 36.7771 193.28C30.5593 187.597 26.7391 179.856 26.0203 171.483L24.2685 151.076C16.7195 150.549 9.98066 146.472 6.00991 139.946C1.76878 132.975 1.49535 124.511 5.27841 117.303C9.54403 109.178 15.9027 99.6366 24.6833 88.1935C25.3632 61.6978 35.0485 39.4248 52.7975 23.6363C70.1312 8.21703 93.8056 0.0479102 121.277 0.00522656C121.369 0.00261328 121.45 0.000435547 121.558 0.00261328C121.683 0.00174219 121.808 0.00304883 121.932 0.0074043C128.182 0.0783984 134.429 0.763078 140.504 2.04446C145.232 3.04186 148.253 7.66519 147.251 12.3717C146.25 17.0782 141.606 20.0844 136.878 19.0883C131.871 18.0321 126.717 17.4733 121.559 17.4267C121.538 17.4267 121.517 17.4267 121.495 17.4267C73.2917 17.4267 42.1448 46.387 42.1448 91.2066C42.1448 93.1382 41.4999 95.015 40.3117 96.542C31.3657 108.037 24.797 117.737 20.7887 125.373C19.4569 127.909 20.4776 130.097 20.9785 130.919C21.4895 131.759 22.9967 133.713 25.9472 133.713C34.1534 133.713 40.8686 139.851 41.5682 147.991L43.4573 169.999C44.1743 178.364 51.0755 184.672 59.5087 184.672H66.9401C81.4143 184.672 93.1901 196.395 93.1901 210.805V214.289C93.1901 219.1 89.2723 223 84.4401 223Z" fill="#1C63F2"/>
<path d="M127.315 125.002C112.841 125.002 101.065 113.192 101.065 98.6744C101.065 94.4697 102.409 87.0096 114.026 70.8447C117.094 66.5746 122.063 64.0254 127.315 64.0254C132.568 64.0254 137.536 66.5746 140.604 70.8447C152.222 87.0096 153.565 94.4697 153.565 98.6744C153.565 113.192 141.789 125.002 127.315 125.002ZM127.315 82.3088C118.773 94.4627 118.566 98.6396 118.565 98.6819C118.565 103.585 122.49 107.58 127.315 107.58C132.138 107.58 136.063 103.588 136.065 98.6801C136.06 98.5786 135.796 94.3743 127.315 82.3088Z" fill="#FF8A4C"/>
</g>
<defs>
<clipPath id="clip0">
<rect width="224" height="223" fill="white"/>
</clipPath>
</defs>
</svg>
