<svg width="224" height="223" viewBox="0 0 224 223" fill="none" xmlns="http://www.w3.org/2000/svg">
<g clip-path="url(#clip0)">
<path d="M70.9935 193.382H57.3228C44.4133 193.382 33.6519 183.545 32.553 170.74L30.6635 148.733C30.3559 145.149 27.3337 142.433 23.7209 142.423C12.8676 142.395 5.81661 130.922 10.8477 121.338C15.5293 112.419 22.8144 101.992 31.2086 91.207C31.2086 38.3297 69.1285 8.71795 119.307 8.71795C119.308 8.71707 119.308 8.7162 119.309 8.71533C119.331 8.71533 119.352 8.71664 119.374 8.71664C119.396 8.71664 119.418 8.71533 119.44 8.71533L119.437 8.71795L126.44 17.4239C111.928 17.4239 56.3411 33.9743 56.3411 91.207C56.3411 97.0018 54.4065 102.632 50.8414 107.213C48.1158 110.714 43.2999 115.013 40.9764 118.033C36.9563 123.26 39.7768 123.425 41.9026 125.255C42.1524 125.47 55.7006 131.535 55.7006 146.505L57.717 168.991C57.9366 177.169 63.6419 183.946 71.2696 185.867C71.2621 186.211 71.2547 186.554 71.2473 186.893C71.2005 189.056 71.1081 191.219 70.9935 193.382ZM143.933 173.782C143.933 165.235 146.336 157.248 150.504 150.451C152.771 146.752 153.996 142.513 153.996 138.18L154.002 91.9013C154.002 75.3295 165.627 61.4694 181.199 57.938C175.864 54.6362 169.575 52.7186 162.834 52.7029C143.538 52.6585 127.752 68.7912 127.752 88.001L127.746 134.289C127.746 138.319 126.644 142.283 124.499 145.701C120.181 152.583 117.684 160.714 117.684 169.427C117.684 194.202 137.859 214.287 162.745 214.287C164.793 214.287 166.808 214.149 168.784 213.885C154.047 206.509 143.933 191.323 143.933 173.782Z" fill="#A4CAFE"/>
<path d="M64.2572 184.671H56.8846C48.4516 184.671 41.551 178.363 40.8327 169.998L38.9436 147.991C38.2445 139.851 31.529 133.713 23.323 133.713C20.3726 133.713 18.8654 131.759 18.3544 130.919C17.8539 130.096 16.8333 127.909 18.165 125.372C22.1733 117.737 28.7413 108.037 37.6876 96.5421C38.8758 95.0156 39.5206 93.1388 39.5206 91.2068C39.5206 46.3882 70.6669 17.4285 118.87 17.4285H118.933C132.167 17.5491 145.204 21.0757 156.636 27.6275C160.824 30.0273 166.174 28.5935 168.585 24.4245C170.996 20.2551 169.555 14.9294 165.367 12.5291C151.394 4.52045 135.167 0.187284 119.003 0.00305176C91.5317 0.0466055 67.5065 8.21947 50.1731 23.6384C32.4245 39.4266 22.7394 61.6991 22.0595 88.1942C13.2795 99.637 6.92059 109.178 2.65506 117.303C-1.12792 124.511 -0.85449 132.974 3.38654 139.945C7.35721 146.471 14.0959 150.547 21.6448 151.075L23.3965 171.481C24.1153 179.854 27.9355 187.595 34.1531 193.278C40.3707 198.962 48.4437 202.092 56.8842 202.092H64.2568C66.5996 202.092 68.8006 203.001 70.4543 204.653C72.108 206.305 73.0145 208.5 73.0066 210.832L72.9952 214.258C72.979 219.068 76.8832 222.982 81.7157 222.998H81.7455C86.564 222.998 90.4782 219.117 90.4949 214.316L90.5062 210.89C90.5299 203.894 87.8104 197.311 82.8493 192.355C77.8881 187.4 71.2855 184.671 64.2572 184.671Z" fill="#1C63F2"/>
<path d="M215.244 114.113H206.494C196.845 114.113 188.995 121.929 188.995 131.535V134.288C188.995 140.003 190.577 145.545 193.57 150.315C197.159 156.036 199.057 162.645 199.057 169.427C199.057 179.177 195.216 188.317 188.243 195.165C181.271 202.011 172.038 205.709 162.231 205.573C142.849 205.308 126.793 189.397 126.439 170.105C126.311 163.086 128.202 156.249 131.908 150.335C134.909 145.544 136.496 139.996 136.496 134.29L136.502 87.983C136.502 73.6856 148.632 61.5175 162.751 61.4134C175.196 61.4134 185.993 70.1677 188.473 82.2966C190.127 90.3854 197.338 96.2564 205.62 96.2564H215.25C220.083 96.2564 224 92.3566 224 87.5457C224 82.7347 220.083 78.8349 215.25 78.8349L205.62 78.8214C201.484 58.5916 183.051 43.9919 162.314 43.9919C150.746 44.0773 139.939 48.762 131.69 57.1805C123.508 65.5306 119.002 76.47 119.002 87.9821L118.996 134.289C118.996 136.733 118.327 139.093 117.06 141.114C111.559 149.893 108.753 160.028 108.943 170.423C109.198 184.346 114.837 197.462 124.82 207.355C134.803 217.247 148.327 222.806 162.314 222.997C176.551 222.997 190.381 217.535 200.531 207.568C210.865 197.421 216.556 183.875 216.556 169.426C216.556 159.377 213.74 149.577 208.412 141.085C207.157 139.085 206.494 136.735 206.494 134.288V131.535H215.244C220.076 131.535 223.993 127.635 223.993 122.824C223.993 118.013 220.076 114.113 215.244 114.113Z" fill="#1C63F2"/>
<path d="M151.808 169.427C151.808 163.413 156.705 158.538 162.745 158.538C168.786 158.538 173.682 163.413 173.682 169.427C173.682 175.44 168.786 180.315 162.745 180.315C156.705 180.315 151.808 175.44 151.808 169.427ZM171.495 132.406V91.9011C171.495 87.0901 167.578 83.1903 162.745 83.1903C157.913 83.1903 153.995 87.0901 153.995 91.9011V132.406C153.995 137.217 157.913 141.117 162.745 141.117C167.578 141.117 171.495 137.217 171.495 132.406Z" fill="#FF8A4C"/>
</g>
<defs>
<clipPath id="clip0">
<rect width="224" height="223" fill="white"/>
</clipPath>
</defs>
</svg>
