<svg width="224" height="224" viewBox="0 0 224 224" fill="none" xmlns="http://www.w3.org/2000/svg">
<path d="M57.1419 194.101C50.008 191.995 44.5414 186.234 42.8028 178.987C39.5706 165.516 35 133.07 35 109.261C35 70.5372 52.0621 46.4157 69.9037 33.0619C66.4436 29.9832 61.8082 28.4397 56.4375 28.4375C52.4296 28.4358 48.286 29.6796 44.5099 32.4297C26.3616 45.6483 8.75 69.9186 8.75 109.261C8.75 133.07 13.3206 165.516 16.5528 178.986C18.2914 186.233 23.758 191.995 30.8919 194.101L52.5219 200.486C58.4321 202.231 64.3479 200.874 68.7789 197.536L57.1419 194.101Z" fill="#A4CAFE"/>
<path d="M84.875 144.327V182.795C84.875 191.462 80.8977 199.405 73.9624 204.589C69.1867 208.158 63.5534 210.009 57.799 210.009C55.216 210.009 52.6098 209.636 50.0443 208.879L28.4147 202.494C18.3107 199.51 10.5052 191.285 8.04431 181.029C4.7565 167.325 0 133.883 0 109.261C0 61.2001 24.6592 36.0636 39.3584 25.3575C44.4509 21.6479 50.3536 19.6875 56.4287 19.6875H56.441C71.5947 19.6941 82.4508 29.0749 84.7731 44.1696C85.5076 48.9462 82.2312 53.4135 77.455 54.1485C72.6766 54.8826 68.2111 51.6066 67.4761 46.8304C66.465 40.2544 62.9558 37.1901 56.434 37.1875C56.4327 37.1875 56.4309 37.1875 56.4292 37.1875C54.0479 37.1875 51.7711 37.9662 49.6619 39.5028C34.9895 50.1891 17.5 70.966 17.5 109.261C17.5 132.55 21.9708 164.065 25.0613 176.945C26.0662 181.135 29.2499 184.493 33.3699 185.709L54.9994 192.094C57.9372 192.961 61.0299 192.406 63.4852 190.571C65.9571 188.723 67.375 185.889 67.375 182.795V144.327C67.375 139.494 71.2924 135.577 76.125 135.577C80.9576 135.577 84.875 139.494 84.875 144.327ZM146.545 54.1485C151.322 54.8804 155.788 51.6066 156.523 46.8304C157.535 40.2544 161.044 37.1901 167.566 37.1875H167.571C169.952 37.1875 172.229 37.9662 174.339 39.5028C189.01 50.1891 206.5 70.966 206.5 109.261C206.5 114.093 210.417 118.011 215.25 118.011C220.083 118.011 224 114.093 224 109.261C224 61.1997 199.341 36.0631 184.642 25.3575C179.549 21.6475 173.647 19.6875 167.571 19.6875C167.567 19.6875 167.562 19.6875 167.559 19.6875C152.405 19.6941 141.549 29.0749 139.227 44.1696C138.492 48.9462 141.768 53.4135 146.545 54.1485ZM224 168.438C224 173.27 220.083 177.188 215.25 177.188H209.07C207.998 182.17 206.032 186.824 203.346 190.971L207.875 195.5C211.292 198.917 211.292 204.457 207.875 207.874C206.166 209.583 203.927 210.438 201.688 210.438C199.448 210.438 197.209 209.583 195.5 207.875L190.971 203.346C186.824 206.032 182.17 207.998 177.188 209.07V215.25C177.188 220.083 173.27 224 168.438 224C163.605 224 159.688 220.083 159.688 215.25V209.07C154.705 207.998 150.051 206.032 145.904 203.346L141.375 207.875C139.666 209.583 137.427 210.438 135.188 210.438C132.948 210.438 130.709 209.583 129 207.875C125.583 204.457 125.583 198.917 129 195.5L133.529 190.971C130.843 186.824 128.877 182.171 127.805 177.188H121.625C116.792 177.188 112.875 173.271 112.875 168.438C112.875 163.605 116.792 159.688 121.625 159.688H127.805C128.877 154.705 130.843 150.052 133.529 145.904L129 141.375C125.583 137.957 125.583 132.417 129 129C132.417 125.584 137.958 125.583 141.374 129.001L145.903 133.53C150.05 130.844 154.704 128.877 159.687 127.805V121.625C159.687 116.792 163.604 112.875 168.437 112.875C173.27 112.875 177.187 116.792 177.187 121.625V127.805C182.17 128.877 186.824 130.843 190.971 133.529L195.5 129C198.917 125.583 204.457 125.583 207.874 129C211.291 132.417 211.291 137.957 207.874 141.374L203.345 145.904C206.031 150.051 207.998 154.704 209.069 159.688H215.25C220.083 159.688 224 163.605 224 168.438ZM192.5 168.438C192.5 155.169 181.706 144.375 168.438 144.375C155.169 144.375 144.375 155.169 144.375 168.438C144.375 181.706 155.169 192.5 168.438 192.5C181.706 192.5 192.5 181.706 192.5 168.438Z" fill="#1C63F2"/>
<path d="M179.375 168.438C179.375 174.478 174.478 179.375 168.437 179.375C162.397 179.375 157.5 174.478 157.5 168.438C157.5 162.397 162.397 157.5 168.437 157.5C174.478 157.5 179.375 162.397 179.375 168.438ZM180.282 84.1037C170.47 82.5777 154.868 78.0649 142.131 71.4249C134.146 67.2613 120.75 58.7514 120.75 48.5306V8.75C120.75 3.91738 116.833 0 112 0C107.167 0 103.25 3.91738 103.25 8.75V48.5306C103.25 58.7514 89.8541 67.2613 81.8689 71.4249C69.1319 78.0653 53.5298 82.5777 43.7175 84.1037C38.9422 84.8466 35.6737 89.32 36.4165 94.0949C37.0885 98.4143 40.8125 101.501 45.0519 101.501C48.9999 101.501 54.2473 99.9434 59.3205 98.5915C56.9979 105.582 53.0744 113.072 46.826 116.665C42.6365 119.074 41.1932 124.422 43.602 128.612C45.2204 131.427 48.166 133.002 51.1953 133.002C52.6745 133.002 54.1747 132.626 55.5489 131.836C71.8785 122.446 77.2497 101.735 78.9096 92.0329C91.3302 86.9562 103.921 79.8245 112 70.4086C128.323 89.4351 171.062 101.502 178.948 101.502C183.187 101.502 186.911 98.4143 187.583 94.0953C188.326 89.32 185.058 84.847 180.282 84.1037Z" fill="#FF8A4C"/>
</svg>
