<svg width="224" height="224" viewBox="0 0 224 224" fill="none" xmlns="http://www.w3.org/2000/svg">
<g clip-path="url(#clip0)">
<path d="M73.4053 186.679C65.9674 184.637 60.4412 177.931 60.225 169.857L57.9326 146.876C57.9326 131.867 44.4104 125.787 44.1611 125.571C42.0394 123.736 39.2239 123.57 43.2367 118.33C45.5558 115.302 50.3624 110.993 53.0828 107.482C56.641 102.89 58.5719 97.2454 58.5719 91.4358C58.5719 34.057 114.052 17.4643 128.536 17.4643L121.547 8.73651L121.549 8.73389C121.528 8.73389 121.506 8.73476 121.484 8.7352C121.462 8.7352 121.44 8.73389 121.418 8.73389C121.418 8.73476 121.418 8.73563 121.417 8.73651C71.3347 8.73651 33.4877 38.4235 33.4877 91.4362C25.1097 102.249 17.839 112.702 13.166 121.644C8.14451 131.253 15.182 142.755 26.0144 142.783C29.6203 142.792 32.6366 145.516 32.9436 149.109L34.829 171.172C35.9263 184.01 46.6671 193.872 59.5517 193.872H73.0197C73.1861 191.472 73.3014 189.078 73.4053 186.679Z" fill="#A4CAFE"/>
<path d="M207.481 101.779C202.923 100.209 197.952 102.631 196.38 107.191C194.745 111.94 192.187 115.838 189.226 120.352C183.322 129.354 175.974 140.557 175.974 161.123V215.267C175.974 220.091 179.884 224 184.707 224C189.53 224 193.44 220.091 193.44 215.267V161.123C193.44 145.774 198.255 138.432 203.831 129.932C207.133 124.898 210.546 119.694 212.893 112.88C214.465 108.32 212.042 103.35 207.481 101.779Z" fill="#1C63F2"/>
<path d="M152.706 5.88735C142.895 2.39284 132.308 0.118332 121.83 0C94.412 0.0432283 70.4325 8.67317 53.1329 24.1314C35.4185 39.96 25.7519 62.2898 25.0729 88.8525C16.3094 100.326 9.96265 109.892 5.70619 118.036C1.93047 125.261 2.20294 133.747 6.43583 140.735C10.3989 147.278 17.125 151.365 24.659 151.895L26.4078 172.353C27.1256 180.747 30.938 188.508 37.1437 194.206C43.3493 199.903 51.4068 203.041 59.8316 203.041H67.19C69.5278 203.041 71.725 203.953 73.3751 205.609C75.0257 207.265 75.9304 209.465 75.9225 211.803L75.9112 215.238C75.895 220.061 79.7921 223.984 84.6149 224H84.6446C89.4543 224 93.361 220.11 93.3772 215.297L93.3885 211.862C93.4121 204.848 90.6979 198.248 85.7463 193.279C80.7942 188.311 74.2043 185.575 67.19 185.575H59.8316C51.4151 185.575 44.527 179.251 43.8109 170.865L41.925 148.802C41.2272 140.641 34.5251 134.487 26.3344 134.487C23.3896 134.487 21.8854 132.529 21.3754 131.687C20.8754 130.862 19.8571 128.669 21.1863 126.125C25.186 118.472 31.7419 108.747 40.6709 97.2222C41.8573 95.6918 42.5005 93.8103 42.5005 91.8737C42.5005 46.9407 73.5869 17.907 121.697 17.907C121.718 17.907 121.739 17.907 121.76 17.9066C130.364 17.9852 138.803 19.4772 146.845 22.3416C151.39 23.9598 156.384 21.5884 158.002 17.0451C159.62 12.5013 157.249 7.50557 152.706 5.88735Z" fill="#1C63F2"/>
<path d="M219.723 48.1764C217.202 41.9895 211.257 37.992 204.578 37.992H185.026L208.268 15.4369C211.729 12.0782 211.812 6.5493 208.453 3.08798C205.094 -0.372907 199.566 -0.45587 196.104 2.90284L170.91 27.353C166.105 32.0169 164.626 39.0404 167.143 45.2465C169.658 51.4496 175.607 55.458 182.299 55.458H201.849L179.498 77.1307C176.035 80.4881 175.95 86.0174 179.307 89.4796C181.02 91.2458 183.297 92.1331 185.578 92.1331C187.767 92.1331 189.96 91.3144 191.656 89.6695L216.008 66.0564C220.788 61.3851 222.246 54.3668 219.723 48.1764Z" fill="#1C63F2"/>
<path d="M130.517 113.966C128.236 113.966 125.959 113.078 124.246 111.312C120.889 107.849 120.974 102.321 124.437 98.9632L137.335 86.4566H128.038C122.134 86.4566 116.87 82.884 114.628 77.3547C112.367 71.7791 113.67 65.4948 117.946 61.3445L118.008 61.2855L137.205 43.0152C140.699 39.6901 146.227 39.8264 149.552 43.3204C152.877 46.8141 152.74 52.3421 149.246 55.6667L135.247 68.9906H144.876C150.821 68.9906 156.097 72.5114 158.317 77.9603C160.522 83.3704 159.222 89.5293 155.005 93.6509L136.595 111.502C134.899 113.147 132.707 113.966 130.517 113.966Z" fill="#FF8A4C"/>
</g>
<defs>
<clipPath id="clip0">
<rect width="224" height="224" fill="white"/>
</clipPath>
</defs>
</svg>
