<?xml version="1.0" standalone="no"?>
<!DOCTYPE svg PUBLIC "-//W3C//DTD SVG 20010904//EN"
 "http://www.w3.org/TR/2001/REC-SVG-20010904/DTD/svg10.dtd">
<svg version="1.0" xmlns="http://www.w3.org/2000/svg"
 width="900.000000pt" height="900.000000pt" viewBox="0 0 900.000000 900.000000"
 preserveAspectRatio="xMidYMid meet">
<metadata>
Created by potrace 1.11, written by Peter Selinger 2001-2013
</metadata>
<g transform="translate(0.000000,900.000000) scale(0.100000,-0.100000)"
fill="#000000" stroke="none">
<path d="M4400 8988 c-19 -5 -42 -12 -50 -15 -8 -3 -17 -7 -20 -8 -22 -5 -92
-50 -121 -77 -38 -36 -104 -118 -95 -118 4 0 0 -10 -8 -22 -25 -39 -43 -131
-41 -204 6 -160 99 -305 239 -374 74 -36 132 -48 217 -44 92 5 100 7 170 42
176 87 275 284 238 475 -27 147 -142 281 -284 332 -57 20 -192 27 -245 13z"/>
<path d="M2362 8448 c-143 -22 -280 -135 -335 -276 -25 -64 -39 -195 -23 -220
4 -8 6 -16 3 -18 -13 -14 55 -160 95 -204 38 -42 111 -96 148 -110 19 -7 40
-17 45 -21 13 -10 109 -23 155 -22 105 4 216 52 292 128 47 47 102 139 112
185 3 14 8 36 11 50 3 14 6 43 6 65 2 175 -92 330 -246 404 -91 44 -164 54
-263 39z"/>
<path d="M6594 8444 c-83 -18 -163 -64 -226 -129 -28 -28 -80 -105 -72 -105 3
0 2 -6 -3 -12 -44 -57 -53 -204 -19 -323 40 -142 191 -270 346 -291 73 -11 92
-10 155 4 162 35 285 150 335 314 6 21 9 42 5 48 -3 5 -2 10 2 10 10 0 9 90
-1 145 -14 73 -64 164 -121 220 -31 30 -64 57 -75 60 -11 4 -20 10 -20 14 0 7
-88 39 -130 48 -43 9 -131 8 -176 -3z"/>
<path d="M4405 7755 c-113 -33 -193 -110 -235 -224 -17 -48 -19 -84 -20 -394
0 -187 -2 -342 -3 -343 -1 -2 -25 -6 -52 -10 -27 -3 -59 -10 -71 -15 -12 -4
-41 -11 -65 -14 -24 -4 -50 -10 -59 -14 -8 -4 -41 -14 -73 -21 -32 -7 -60 -17
-63 -22 -3 -4 -13 -8 -22 -8 -9 0 -28 -6 -42 -13 -56 -29 -69 -28 -95 11 -14
20 -25 42 -25 48 0 7 -7 15 -16 18 -9 4 -14 9 -11 13 3 3 -6 24 -22 47 -15 22
-74 120 -131 216 -58 98 -122 193 -145 216 -89 86 -213 119 -332 88 -213 -55
-320 -293 -222 -493 18 -36 35 -68 38 -71 3 -3 13 -18 21 -35 8 -16 17 -32 21
-35 4 -4 100 -164 166 -277 12 -21 27 -44 33 -50 6 -7 7 -13 3 -13 -4 0 -3 -4
2 -8 6 -4 17 -20 25 -36 14 -28 14 -31 -8 -53 -13 -13 -25 -23 -28 -23 -7 0
-180 -174 -214 -216 -38 -45 -46 -47 -89 -19 -23 14 -45 25 -51 25 -5 0 -10 3
-10 8 0 4 -26 21 -58 37 -31 17 -59 32 -62 35 -8 8 -111 70 -116 70 -2 0 -23
11 -45 26 -39 24 -62 38 -157 92 -274 156 -589 -92 -509 -403 3 -11 6 -21 7
-22 2 -2 3 -6 4 -10 6 -27 45 -84 80 -118 23 -23 134 -94 247 -160 112 -65
206 -121 209 -124 3 -4 27 -17 53 -31 26 -14 59 -34 72 -45 23 -19 24 -22 11
-50 -28 -60 -102 -310 -112 -380 -2 -16 -6 -39 -8 -50 -3 -11 -5 -27 -5 -36
-1 -15 -33 -17 -335 -17 -402 -1 -437 -7 -534 -101 -173 -168 -126 -460 90
-565 29 -14 67 -28 83 -31 17 -3 176 -6 355 -6 303 -1 359 -6 346 -28 -3 -4 0
-27 5 -52 6 -24 12 -56 14 -70 7 -51 62 -237 93 -315 l21 -51 -27 -22 c-14
-11 -30 -21 -34 -21 -4 0 -31 -15 -61 -32 -64 -40 -62 -39 -220 -132 -71 -42
-133 -76 -138 -76 -5 0 -9 -3 -9 -7 0 -5 -22 -20 -49 -36 -27 -15 -67 -49 -88
-75 -59 -73 -60 -75 -82 -192 -24 -125 68 -290 194 -349 87 -41 205 -47 267
-15 15 8 28 12 28 10 0 -3 51 25 113 62 61 38 164 98 227 135 63 38 124 73
135 80 11 6 37 22 58 35 41 25 49 23 87 -22 33 -38 175 -182 223 -224 20 -18
37 -36 37 -41 0 -8 -154 -267 -215 -361 -95 -148 -142 -239 -153 -295 -15 -82
-5 -150 34 -230 40 -81 128 -152 224 -181 63 -19 184 -3 254 33 34 18 136 118
136 134 0 6 10 25 23 42 12 18 27 41 33 52 14 26 265 439 270 444 2 2 11 0 21
-4 10 -5 23 -9 28 -11 6 -1 47 -16 92 -32 45 -17 84 -28 87 -24 3 3 6 0 6 -7
0 -7 4 -10 8 -7 5 3 35 -3 68 -13 32 -10 64 -18 69 -19 6 -1 40 -7 78 -13 l67
-12 1 -336 c1 -185 2 -340 3 -346 13 -71 62 -160 113 -206 15 -13 53 -37 83
-53 48 -26 65 -30 145 -30 77 -1 98 3 147 26 71 33 143 106 177 178 l26 55 3
356 3 357 45 7 c25 3 98 20 162 36 122 31 128 32 152 42 8 3 48 17 88 31 69
25 92 26 92 6 0 -4 45 -81 100 -170 55 -89 100 -164 100 -166 0 -3 18 -32 40
-65 22 -33 40 -63 40 -65 0 -11 79 -120 101 -140 141 -124 348 -116 482 18 84
85 115 195 92 323 -7 39 -53 137 -67 143 -5 2 -8 10 -8 18 0 8 -4 14 -9 14 -5
0 -11 8 -14 17 -4 10 -19 38 -34 63 -15 25 -44 72 -63 104 -19 32 -43 70 -52
84 -10 15 -21 34 -25 42 -4 8 -26 46 -50 84 -42 69 -52 96 -34 96 10 0 204
190 258 253 l33 37 70 -45 c39 -25 73 -45 76 -45 3 0 32 -18 64 -40 32 -22 61
-40 63 -40 3 0 70 -40 148 -88 187 -114 210 -124 307 -124 147 1 290 109 327
247 5 17 10 37 12 45 6 25 1 148 -7 158 -2 1 -3 6 -4 10 0 5 -13 31 -28 58
-28 52 -95 120 -138 142 -14 7 -45 25 -70 42 -25 16 -74 46 -110 68 -165 99
-336 204 -343 211 -4 4 4 35 17 69 14 35 25 64 25 65 0 1 2 9 5 17 31 98 62
222 81 332 3 17 8 35 10 38 3 4 143 8 312 8 359 1 402 5 466 40 205 111 254
380 100 548 -32 34 -103 89 -103 78 0 -3 -6 -2 -12 3 -36 29 -95 34 -422 35
-190 0 -339 5 -342 10 -3 5 -7 19 -9 31 -7 59 -39 195 -63 274 -6 17 -8 34 -4
37 3 3 0 6 -7 6 -7 0 -10 4 -7 8 3 5 -2 21 -10 36 -7 16 -14 32 -14 36 0 5 -5
21 -12 37 -6 15 -12 33 -14 40 -1 7 49 43 112 80 63 37 127 76 142 85 45 29
76 46 102 60 14 7 27 15 30 18 3 3 42 28 88 55 115 69 162 122 198 220 24 68
22 167 -6 240 -6 17 -11 31 -10 33 3 11 -112 125 -145 143 -77 43 -212 57
-264 29 -12 -6 -21 -8 -21 -5 0 9 -81 -37 -317 -180 -81 -49 -156 -94 -165
-100 -9 -5 -37 -23 -63 -38 l-46 -28 -22 26 c-31 37 -217 225 -250 252 -18 15
-24 28 -20 39 6 16 95 163 148 244 60 92 182 299 195 330 20 48 21 56 21 130
1 136 -80 259 -206 316 -86 40 -195 40 -280 1 -33 -16 -77 -45 -98 -65 -21
-20 -117 -164 -214 -319 -168 -272 -176 -283 -202 -277 -14 4 -37 12 -51 19
-14 7 -50 20 -80 29 -30 10 -62 20 -70 23 -22 9 -32 11 -65 18 -16 3 -43 10
-60 15 -16 4 -48 12 -70 16 -22 4 -43 8 -47 9 -5 2 -19 3 -33 4 l-24 1 -4 353
c-1 193 -6 362 -9 375 -14 48 -64 126 -103 159 -48 42 -132 86 -150 79 -7 -2
-16 -2 -20 2 -11 12 -118 10 -160 -3z m290 -1649 c117 -13 318 -68 425 -114
19 -9 37 -16 40 -17 26 -6 233 -125 280 -161 53 -41 160 -134 190 -164 64 -64
160 -177 160 -188 0 -5 4 -12 8 -14 16 -6 95 -134 143 -232 54 -109 118 -290
134 -376 2 -14 6 -36 9 -50 28 -125 28 -411 1 -570 -16 -93 -49 -214 -75 -276
-11 -24 -18 -44 -16 -44 3 0 -9 -27 -25 -60 -16 -33 -29 -64 -29 -69 0 -5 -3
-11 -7 -13 -5 -1 -19 -25 -33 -53 -14 -27 -31 -56 -37 -63 -7 -7 -13 -17 -13
-21 0 -7 -11 -22 -50 -68 -5 -7 -10 -16 -10 -22 0 -5 -3 -11 -7 -13 -5 -1 -28
-28 -53 -58 -134 -165 -338 -323 -542 -419 -94 -45 -232 -97 -282 -107 -12 -2
-30 -6 -41 -8 -11 -2 -31 -7 -45 -10 -79 -19 -207 -31 -316 -30 -79 1 -81 1
-135 43 -143 110 -272 241 -383 386 -55 73 -156 231 -156 244 0 5 -11 25 -25
45 -13 20 -23 36 -21 36 3 0 -8 26 -23 58 -16 31 -34 75 -41 97 -7 22 -16 45
-20 50 -5 6 -8 12 -8 15 0 8 -23 92 -37 137 -8 23 -17 63 -21 90 -3 26 -9 52
-12 57 -5 8 -13 71 -14 106 -1 8 -4 20 -8 25 -8 12 -5 427 4 470 12 57 19 100
21 132 2 17 5 35 9 41 3 5 8 26 12 47 3 20 12 56 21 78 8 23 17 52 19 65 12
59 148 363 166 370 4 2 8 8 8 14 0 13 119 192 131 196 5 2 9 8 9 13 0 5 11 22
24 37 14 15 34 38 46 52 45 53 159 167 206 205 26 22 56 48 66 58 10 9 21 17
24 17 3 0 19 10 34 23 25 22 36 23 131 22 57 -1 131 -5 164 -9z"/>
<path d="M4486 4922 c-3 -2 -24 -6 -47 -8 -66 -6 -167 -61 -230 -123 -90 -91
-130 -197 -124 -329 6 -154 77 -274 210 -355 132 -80 285 -83 428 -9 231 120
301 423 148 642 -65 92 -179 162 -287 175 -21 3 -51 7 -66 9 -15 2 -30 1 -32
-2z"/>
<path d="M842 7009 c-61 -8 -172 -47 -172 -60 0 -5 -6 -9 -13 -9 -11 0 -54
-39 -109 -98 -26 -27 -75 -142 -83 -193 -12 -73 -4 -174 17 -212 6 -12 10 -23
9 -25 -7 -8 61 -112 95 -146 35 -35 113 -94 124 -93 3 0 28 -7 56 -17 75 -25
167 -26 249 -2 39 11 72 23 75 27 3 3 19 13 35 22 17 9 46 31 66 49 175 160
185 446 22 623 -47 51 -148 115 -183 115 -10 0 -21 4 -24 8 -2 4 -20 9 -38 10
-19 1 -43 4 -53 5 -11 2 -44 0 -73 -4z"/>
<path d="M8096 7013 c-2 -2 -21 -5 -42 -7 -22 -2 -48 -7 -59 -11 -249 -87
-370 -343 -277 -582 114 -297 504 -371 723 -138 34 36 89 127 94 157 2 10 6
22 9 27 13 20 17 141 7 194 -6 31 -21 80 -35 109 -25 56 -109 161 -120 151 -3
-4 -6 -2 -6 4 0 12 -86 60 -133 75 -48 15 -153 29 -161 21z"/>
<path d="M8536 4943 c-4 -4 -25 -8 -46 -8 -21 0 -42 -4 -46 -8 -4 -4 -14 -7
-23 -7 -22 0 -111 -43 -141 -68 -83 -70 -151 -179 -166 -262 -27 -161 21 -307
135 -412 87 -80 167 -111 286 -112 124 -1 198 25 294 103 40 33 119 146 113
163 -1 4 2 8 6 8 5 0 9 6 10 13 0 6 4 23 8 37 23 79 8 227 -29 296 -9 16 -21
39 -26 51 -11 23 -104 123 -115 123 -4 0 -23 10 -44 23 -47 28 -95 45 -151 52
-24 3 -47 8 -51 10 -4 2 -10 1 -14 -2z"/>
<path d="M364 4931 c-2 -3 -13 -6 -24 -8 -92 -14 -226 -126 -276 -232 -32 -68
-37 -94 -38 -191 0 -137 29 -209 130 -317 17 -18 36 -33 43 -33 6 0 11 -3 11
-8 0 -8 43 -32 105 -58 40 -16 220 -28 240 -15 6 3 12 6 15 7 36 7 120 48 136
65 10 11 21 19 25 19 17 0 79 76 110 135 47 86 65 199 46 295 -14 71 -85 195
-134 233 -13 10 -29 24 -36 31 -20 20 -119 65 -167 75 -44 9 -177 11 -186 2z"/>
<path d="M822 2875 c-29 -7 -52 -10 -52 -8 0 12 -142 -72 -174 -103 -63 -62
-136 -191 -119 -208 4 -3 2 -6 -4 -6 -6 0 -9 -11 -8 -25 2 -14 -1 -25 -6 -25
-6 0 -8 -3 -5 -8 2 -4 5 -34 7 -67 1 -33 7 -76 12 -95 12 -47 58 -140 69 -140
4 0 8 -5 8 -12 0 -20 94 -98 155 -128 74 -36 122 -47 201 -44 161 5 295 90
377 235 64 117 60 317 -9 419 -13 19 -24 38 -24 42 0 9 -52 60 -97 95 -89 69
-226 101 -331 78z"/>
<path d="M8035 2873 c-208 -47 -346 -217 -348 -429 0 -61 6 -98 23 -148 13
-36 27 -66 32 -66 4 0 8 -6 8 -14 0 -23 113 -132 165 -159 159 -80 313 -69
460 31 48 33 125 119 125 140 0 6 4 12 8 14 4 2 18 32 29 68 28 84 25 212 -5
282 -11 25 -18 49 -15 52 4 3 1 6 -5 6 -7 0 -12 7 -12 15 0 8 -29 44 -64 80
-45 46 -83 74 -130 95 -60 28 -85 33 -181 43 -16 2 -57 -3 -90 -10z"/>
<path d="M2335 1376 c-22 -7 -42 -12 -45 -12 -21 0 -113 -58 -156 -99 -44 -42
-125 -165 -109 -165 3 0 1 -8 -4 -17 -11 -22 -22 -77 -23 -118 -5 -198 122
-374 315 -437 59 -19 228 -18 252 2 8 7 15 10 15 6 0 -13 105 51 149 90 287
259 112 744 -274 759 -44 1 -98 -3 -120 -9z"/>
<path d="M6579 1375 c-25 -7 -70 -25 -100 -41 -56 -30 -159 -128 -159 -151 0
-7 -4 -13 -8 -13 -6 0 -30 -50 -31 -63 0 -1 -5 -15 -12 -32 -30 -77 -19 -222
24 -314 51 -108 149 -192 269 -234 50 -17 203 -16 253 1 120 40 209 120 264
237 38 81 44 104 43 185 -1 86 -12 133 -45 195 -6 11 -17 32 -24 46 -14 28
-118 129 -133 129 -5 0 -15 6 -22 13 -42 42 -227 66 -319 42z"/>
<path d="M4487 884 c-3 -3 -23 -8 -44 -11 -52 -6 -135 -33 -154 -49 -8 -8 -19
-14 -22 -14 -8 0 -64 -47 -86 -73 -9 -10 -26 -30 -38 -43 -13 -14 -23 -32 -23
-40 0 -7 -4 -14 -10 -14 -5 0 -10 -8 -10 -18 0 -10 -3 -22 -7 -26 -4 -3 -8
-12 -9 -19 -1 -7 -7 -32 -12 -56 -13 -53 -9 -140 9 -201 7 -25 13 -47 13 -50
3 -15 68 -110 97 -141 29 -30 159 -116 159 -105 0 2 19 -2 43 -9 130 -39 307
8 404 107 62 63 84 88 77 88 -3 0 3 15 14 33 50 81 62 230 28 332 -28 83 -125
215 -157 215 -5 0 -9 3 -9 8 0 22 -164 79 -225 77 -11 0 -23 3 -26 8 -3 4 -8
5 -12 1z"/>
</g>
</svg>
